%TF.GenerationSoftware,KiCad,Pcbnew,(5.1.9)-1*%
%TF.CreationDate,2021-10-08T16:07:11+01:00*%
%TF.ProjectId,5-servos-jst,352d7365-7276-46f7-932d-6a73742e6b69,rev?*%
%TF.SameCoordinates,Original*%
%TF.FileFunction,Soldermask,Top*%
%TF.FilePolarity,Negative*%
%FSLAX46Y46*%
G04 Gerber Fmt 4.6, Leading zero omitted, Abs format (unit mm)*
G04 Created by KiCad (PCBNEW (5.1.9)-1) date 2021-10-08 16:07:11*
%MOMM*%
%LPD*%
G01*
G04 APERTURE LIST*
%ADD10O,1.300000X0.800000*%
%ADD11O,1.700000X1.700000*%
%ADD12R,1.700000X1.700000*%
%ADD13C,3.200000*%
%ADD14O,1.700000X2.000000*%
G04 APERTURE END LIST*
D10*
%TO.C,J10*%
X159258000Y-155154000D03*
X159258000Y-153904000D03*
G36*
G01*
X158808000Y-152254000D02*
X159708000Y-152254000D01*
G75*
G02*
X159908000Y-152454000I0J-200000D01*
G01*
X159908000Y-152854000D01*
G75*
G02*
X159708000Y-153054000I-200000J0D01*
G01*
X158808000Y-153054000D01*
G75*
G02*
X158608000Y-152854000I0J200000D01*
G01*
X158608000Y-152454000D01*
G75*
G02*
X158808000Y-152254000I200000J0D01*
G01*
G37*
%TD*%
%TO.C,J5*%
X163322000Y-155154000D03*
X163322000Y-153904000D03*
G36*
G01*
X162872000Y-152254000D02*
X163772000Y-152254000D01*
G75*
G02*
X163972000Y-152454000I0J-200000D01*
G01*
X163972000Y-152854000D01*
G75*
G02*
X163772000Y-153054000I-200000J0D01*
G01*
X162872000Y-153054000D01*
G75*
G02*
X162672000Y-152854000I0J200000D01*
G01*
X162672000Y-152454000D01*
G75*
G02*
X162872000Y-152254000I200000J0D01*
G01*
G37*
%TD*%
D11*
%TO.C,J3*%
X173482000Y-152146000D03*
X176022000Y-152146000D03*
D12*
X178562000Y-152146000D03*
%TD*%
D11*
%TO.C,J2*%
X173482000Y-155702000D03*
X176022000Y-155702000D03*
D12*
X178562000Y-155702000D03*
%TD*%
D10*
%TO.C,J4*%
X167386000Y-155154000D03*
X167386000Y-153904000D03*
G36*
G01*
X166936000Y-152254000D02*
X167836000Y-152254000D01*
G75*
G02*
X168036000Y-152454000I0J-200000D01*
G01*
X168036000Y-152854000D01*
G75*
G02*
X167836000Y-153054000I-200000J0D01*
G01*
X166936000Y-153054000D01*
G75*
G02*
X166736000Y-152854000I0J200000D01*
G01*
X166736000Y-152454000D01*
G75*
G02*
X166936000Y-152254000I200000J0D01*
G01*
G37*
%TD*%
%TO.C,J1*%
G36*
G01*
X174934000Y-162603000D02*
X174934000Y-161353000D01*
G75*
G02*
X175159000Y-161128000I225000J0D01*
G01*
X175609000Y-161128000D01*
G75*
G02*
X175834000Y-161353000I0J-225000D01*
G01*
X175834000Y-162603000D01*
G75*
G02*
X175609000Y-162828000I-225000J0D01*
G01*
X175159000Y-162828000D01*
G75*
G02*
X174934000Y-162603000I0J225000D01*
G01*
G37*
G36*
G01*
X165034000Y-162603000D02*
X165034000Y-161353000D01*
G75*
G02*
X165259000Y-161128000I225000J0D01*
G01*
X165709000Y-161128000D01*
G75*
G02*
X165934000Y-161353000I0J-225000D01*
G01*
X165934000Y-162603000D01*
G75*
G02*
X165709000Y-162828000I-225000J0D01*
G01*
X165259000Y-162828000D01*
G75*
G02*
X165034000Y-162603000I0J225000D01*
G01*
G37*
G36*
G01*
X173634000Y-159328000D02*
X173634000Y-158378000D01*
G75*
G02*
X173784000Y-158228000I150000J0D01*
G01*
X174084000Y-158228000D01*
G75*
G02*
X174234000Y-158378000I0J-150000D01*
G01*
X174234000Y-159328000D01*
G75*
G02*
X174084000Y-159478000I-150000J0D01*
G01*
X173784000Y-159478000D01*
G75*
G02*
X173634000Y-159328000I0J150000D01*
G01*
G37*
G36*
G01*
X172634000Y-159328000D02*
X172634000Y-158378000D01*
G75*
G02*
X172784000Y-158228000I150000J0D01*
G01*
X173084000Y-158228000D01*
G75*
G02*
X173234000Y-158378000I0J-150000D01*
G01*
X173234000Y-159328000D01*
G75*
G02*
X173084000Y-159478000I-150000J0D01*
G01*
X172784000Y-159478000D01*
G75*
G02*
X172634000Y-159328000I0J150000D01*
G01*
G37*
G36*
G01*
X171634000Y-159328000D02*
X171634000Y-158378000D01*
G75*
G02*
X171784000Y-158228000I150000J0D01*
G01*
X172084000Y-158228000D01*
G75*
G02*
X172234000Y-158378000I0J-150000D01*
G01*
X172234000Y-159328000D01*
G75*
G02*
X172084000Y-159478000I-150000J0D01*
G01*
X171784000Y-159478000D01*
G75*
G02*
X171634000Y-159328000I0J150000D01*
G01*
G37*
G36*
G01*
X170634000Y-159328000D02*
X170634000Y-158378000D01*
G75*
G02*
X170784000Y-158228000I150000J0D01*
G01*
X171084000Y-158228000D01*
G75*
G02*
X171234000Y-158378000I0J-150000D01*
G01*
X171234000Y-159328000D01*
G75*
G02*
X171084000Y-159478000I-150000J0D01*
G01*
X170784000Y-159478000D01*
G75*
G02*
X170634000Y-159328000I0J150000D01*
G01*
G37*
G36*
G01*
X169634000Y-159328000D02*
X169634000Y-158378000D01*
G75*
G02*
X169784000Y-158228000I150000J0D01*
G01*
X170084000Y-158228000D01*
G75*
G02*
X170234000Y-158378000I0J-150000D01*
G01*
X170234000Y-159328000D01*
G75*
G02*
X170084000Y-159478000I-150000J0D01*
G01*
X169784000Y-159478000D01*
G75*
G02*
X169634000Y-159328000I0J150000D01*
G01*
G37*
G36*
G01*
X168634000Y-159328000D02*
X168634000Y-158378000D01*
G75*
G02*
X168784000Y-158228000I150000J0D01*
G01*
X169084000Y-158228000D01*
G75*
G02*
X169234000Y-158378000I0J-150000D01*
G01*
X169234000Y-159328000D01*
G75*
G02*
X169084000Y-159478000I-150000J0D01*
G01*
X168784000Y-159478000D01*
G75*
G02*
X168634000Y-159328000I0J150000D01*
G01*
G37*
G36*
G01*
X167634000Y-159328000D02*
X167634000Y-158378000D01*
G75*
G02*
X167784000Y-158228000I150000J0D01*
G01*
X168084000Y-158228000D01*
G75*
G02*
X168234000Y-158378000I0J-150000D01*
G01*
X168234000Y-159328000D01*
G75*
G02*
X168084000Y-159478000I-150000J0D01*
G01*
X167784000Y-159478000D01*
G75*
G02*
X167634000Y-159328000I0J150000D01*
G01*
G37*
G36*
G01*
X166634000Y-159328000D02*
X166634000Y-158378000D01*
G75*
G02*
X166784000Y-158228000I150000J0D01*
G01*
X167084000Y-158228000D01*
G75*
G02*
X167234000Y-158378000I0J-150000D01*
G01*
X167234000Y-159328000D01*
G75*
G02*
X167084000Y-159478000I-150000J0D01*
G01*
X166784000Y-159478000D01*
G75*
G02*
X166634000Y-159328000I0J150000D01*
G01*
G37*
%TD*%
D13*
%TO.C,H4*%
X180000000Y-162000000D03*
%TD*%
%TO.C,H3*%
X180000000Y-142000000D03*
%TD*%
%TO.C,H2*%
X160000000Y-162000000D03*
%TD*%
%TO.C,H1*%
X160000000Y-142000000D03*
%TD*%
%TO.C,J13*%
G36*
G01*
X179820000Y-158869000D02*
X178320000Y-158869000D01*
G75*
G02*
X178070000Y-158619000I0J250000D01*
G01*
X178070000Y-158119000D01*
G75*
G02*
X178320000Y-157869000I250000J0D01*
G01*
X179820000Y-157869000D01*
G75*
G02*
X180070000Y-158119000I0J-250000D01*
G01*
X180070000Y-158619000D01*
G75*
G02*
X179820000Y-158869000I-250000J0D01*
G01*
G37*
%TD*%
%TO.C,J12*%
G36*
G01*
X166632000Y-163437000D02*
X166632000Y-161937000D01*
G75*
G02*
X166882000Y-161687000I250000J0D01*
G01*
X167382000Y-161687000D01*
G75*
G02*
X167632000Y-161937000I0J-250000D01*
G01*
X167632000Y-163437000D01*
G75*
G02*
X167382000Y-163687000I-250000J0D01*
G01*
X166882000Y-163687000D01*
G75*
G02*
X166632000Y-163437000I0J250000D01*
G01*
G37*
%TD*%
%TO.C,J11*%
G36*
G01*
X168283000Y-163437000D02*
X168283000Y-161937000D01*
G75*
G02*
X168533000Y-161687000I250000J0D01*
G01*
X169033000Y-161687000D01*
G75*
G02*
X169283000Y-161937000I0J-250000D01*
G01*
X169283000Y-163437000D01*
G75*
G02*
X169033000Y-163687000I-250000J0D01*
G01*
X168533000Y-163687000D01*
G75*
G02*
X168283000Y-163437000I0J250000D01*
G01*
G37*
%TD*%
D14*
%TO.C,J6*%
X170347000Y-147066000D03*
G36*
G01*
X173697000Y-146316000D02*
X173697000Y-147816000D01*
G75*
G02*
X173447000Y-148066000I-250000J0D01*
G01*
X172247000Y-148066000D01*
G75*
G02*
X171997000Y-147816000I0J250000D01*
G01*
X171997000Y-146316000D01*
G75*
G02*
X172247000Y-146066000I250000J0D01*
G01*
X173447000Y-146066000D01*
G75*
G02*
X173697000Y-146316000I0J-250000D01*
G01*
G37*
%TD*%
%TO.C,J9*%
G36*
G01*
X169934000Y-163437000D02*
X169934000Y-161937000D01*
G75*
G02*
X170184000Y-161687000I250000J0D01*
G01*
X170684000Y-161687000D01*
G75*
G02*
X170934000Y-161937000I0J-250000D01*
G01*
X170934000Y-163437000D01*
G75*
G02*
X170684000Y-163687000I-250000J0D01*
G01*
X170184000Y-163687000D01*
G75*
G02*
X169934000Y-163437000I0J250000D01*
G01*
G37*
%TD*%
%TO.C,J8*%
G36*
G01*
X171585000Y-163437000D02*
X171585000Y-161937000D01*
G75*
G02*
X171835000Y-161687000I250000J0D01*
G01*
X172335000Y-161687000D01*
G75*
G02*
X172585000Y-161937000I0J-250000D01*
G01*
X172585000Y-163437000D01*
G75*
G02*
X172335000Y-163687000I-250000J0D01*
G01*
X171835000Y-163687000D01*
G75*
G02*
X171585000Y-163437000I0J250000D01*
G01*
G37*
%TD*%
%TO.C,J7*%
G36*
G01*
X173236000Y-163437000D02*
X173236000Y-161937000D01*
G75*
G02*
X173486000Y-161687000I250000J0D01*
G01*
X173986000Y-161687000D01*
G75*
G02*
X174236000Y-161937000I0J-250000D01*
G01*
X174236000Y-163437000D01*
G75*
G02*
X173986000Y-163687000I-250000J0D01*
G01*
X173486000Y-163687000D01*
G75*
G02*
X173236000Y-163437000I0J250000D01*
G01*
G37*
%TD*%
M02*
