%TF.GenerationSoftware,KiCad,Pcbnew,(5.1.9)-1*%
%TF.CreationDate,2021-10-08T16:07:11+01:00*%
%TF.ProjectId,5-servos-jst,352d7365-7276-46f7-932d-6a73742e6b69,rev?*%
%TF.SameCoordinates,Original*%
%TF.FileFunction,Soldermask,Bot*%
%TF.FilePolarity,Negative*%
%FSLAX46Y46*%
G04 Gerber Fmt 4.6, Leading zero omitted, Abs format (unit mm)*
G04 Created by KiCad (PCBNEW (5.1.9)-1) date 2021-10-08 16:07:11*
%MOMM*%
%LPD*%
G01*
G04 APERTURE LIST*
%ADD10O,1.300000X0.800000*%
%ADD11O,1.700000X1.700000*%
%ADD12R,1.700000X1.700000*%
%ADD13C,3.200000*%
%ADD14O,1.700000X2.000000*%
G04 APERTURE END LIST*
D10*
%TO.C,J10*%
X159258000Y-155154000D03*
X159258000Y-153904000D03*
G36*
G01*
X158808000Y-152254000D02*
X159708000Y-152254000D01*
G75*
G02*
X159908000Y-152454000I0J-200000D01*
G01*
X159908000Y-152854000D01*
G75*
G02*
X159708000Y-153054000I-200000J0D01*
G01*
X158808000Y-153054000D01*
G75*
G02*
X158608000Y-152854000I0J200000D01*
G01*
X158608000Y-152454000D01*
G75*
G02*
X158808000Y-152254000I200000J0D01*
G01*
G37*
%TD*%
%TO.C,J5*%
X163322000Y-155154000D03*
X163322000Y-153904000D03*
G36*
G01*
X162872000Y-152254000D02*
X163772000Y-152254000D01*
G75*
G02*
X163972000Y-152454000I0J-200000D01*
G01*
X163972000Y-152854000D01*
G75*
G02*
X163772000Y-153054000I-200000J0D01*
G01*
X162872000Y-153054000D01*
G75*
G02*
X162672000Y-152854000I0J200000D01*
G01*
X162672000Y-152454000D01*
G75*
G02*
X162872000Y-152254000I200000J0D01*
G01*
G37*
%TD*%
D11*
%TO.C,J3*%
X173482000Y-152146000D03*
X176022000Y-152146000D03*
D12*
X178562000Y-152146000D03*
%TD*%
D11*
%TO.C,J2*%
X173482000Y-155702000D03*
X176022000Y-155702000D03*
D12*
X178562000Y-155702000D03*
%TD*%
D10*
%TO.C,J4*%
X167386000Y-155154000D03*
X167386000Y-153904000D03*
G36*
G01*
X166936000Y-152254000D02*
X167836000Y-152254000D01*
G75*
G02*
X168036000Y-152454000I0J-200000D01*
G01*
X168036000Y-152854000D01*
G75*
G02*
X167836000Y-153054000I-200000J0D01*
G01*
X166936000Y-153054000D01*
G75*
G02*
X166736000Y-152854000I0J200000D01*
G01*
X166736000Y-152454000D01*
G75*
G02*
X166936000Y-152254000I200000J0D01*
G01*
G37*
%TD*%
D13*
%TO.C,H4*%
X180000000Y-162000000D03*
%TD*%
%TO.C,H3*%
X180000000Y-142000000D03*
%TD*%
%TO.C,H2*%
X160000000Y-162000000D03*
%TD*%
%TO.C,H1*%
X160000000Y-142000000D03*
%TD*%
D14*
%TO.C,J6*%
X170347000Y-147066000D03*
G36*
G01*
X173697000Y-146316000D02*
X173697000Y-147816000D01*
G75*
G02*
X173447000Y-148066000I-250000J0D01*
G01*
X172247000Y-148066000D01*
G75*
G02*
X171997000Y-147816000I0J250000D01*
G01*
X171997000Y-146316000D01*
G75*
G02*
X172247000Y-146066000I250000J0D01*
G01*
X173447000Y-146066000D01*
G75*
G02*
X173697000Y-146316000I0J-250000D01*
G01*
G37*
%TD*%
M02*
