%TF.GenerationSoftware,KiCad,Pcbnew,(5.1.9)-1*%
%TF.CreationDate,2021-10-08T16:07:11+01:00*%
%TF.ProjectId,5-servos-jst,352d7365-7276-46f7-932d-6a73742e6b69,rev?*%
%TF.SameCoordinates,Original*%
%TF.FileFunction,Copper,L2,Bot*%
%TF.FilePolarity,Positive*%
%FSLAX46Y46*%
G04 Gerber Fmt 4.6, Leading zero omitted, Abs format (unit mm)*
G04 Created by KiCad (PCBNEW (5.1.9)-1) date 2021-10-08 16:07:11*
%MOMM*%
%LPD*%
G01*
G04 APERTURE LIST*
%TA.AperFunction,ComponentPad*%
%ADD10O,1.300000X0.800000*%
%TD*%
%TA.AperFunction,ComponentPad*%
%ADD11O,1.700000X1.700000*%
%TD*%
%TA.AperFunction,ComponentPad*%
%ADD12R,1.700000X1.700000*%
%TD*%
%TA.AperFunction,ComponentPad*%
%ADD13O,1.700000X2.000000*%
%TD*%
%TA.AperFunction,ViaPad*%
%ADD14C,0.800000*%
%TD*%
%TA.AperFunction,Conductor*%
%ADD15C,0.254000*%
%TD*%
%TA.AperFunction,Conductor*%
%ADD16C,0.100000*%
%TD*%
G04 APERTURE END LIST*
D10*
%TO.P,J10,3*%
%TO.N,Net-(J1-Pad1)*%
X159258000Y-155154000D03*
%TO.P,J10,2*%
%TO.N,+BATT*%
X159258000Y-153904000D03*
%TO.P,J10,1*%
%TO.N,GND*%
%TA.AperFunction,ComponentPad*%
G36*
G01*
X158808000Y-152254000D02*
X159708000Y-152254000D01*
G75*
G02*
X159908000Y-152454000I0J-200000D01*
G01*
X159908000Y-152854000D01*
G75*
G02*
X159708000Y-153054000I-200000J0D01*
G01*
X158808000Y-153054000D01*
G75*
G02*
X158608000Y-152854000I0J200000D01*
G01*
X158608000Y-152454000D01*
G75*
G02*
X158808000Y-152254000I200000J0D01*
G01*
G37*
%TD.AperFunction*%
%TD*%
%TO.P,J5,3*%
%TO.N,Net-(J1-Pad3)*%
X163322000Y-155154000D03*
%TO.P,J5,2*%
%TO.N,+BATT*%
X163322000Y-153904000D03*
%TO.P,J5,1*%
%TO.N,GND*%
%TA.AperFunction,ComponentPad*%
G36*
G01*
X162872000Y-152254000D02*
X163772000Y-152254000D01*
G75*
G02*
X163972000Y-152454000I0J-200000D01*
G01*
X163972000Y-152854000D01*
G75*
G02*
X163772000Y-153054000I-200000J0D01*
G01*
X162872000Y-153054000D01*
G75*
G02*
X162672000Y-152854000I0J200000D01*
G01*
X162672000Y-152454000D01*
G75*
G02*
X162872000Y-152254000I200000J0D01*
G01*
G37*
%TD.AperFunction*%
%TD*%
D11*
%TO.P,J3,3*%
%TO.N,Net-(J1-Pad5)*%
X173482000Y-152146000D03*
%TO.P,J3,2*%
%TO.N,+BATT*%
X176022000Y-152146000D03*
D12*
%TO.P,J3,1*%
%TO.N,GND*%
X178562000Y-152146000D03*
%TD*%
D11*
%TO.P,J2,3*%
%TO.N,Net-(J1-Pad6)*%
X173482000Y-155702000D03*
%TO.P,J2,2*%
%TO.N,+BATT*%
X176022000Y-155702000D03*
D12*
%TO.P,J2,1*%
%TO.N,GND*%
X178562000Y-155702000D03*
%TD*%
D10*
%TO.P,J4,3*%
%TO.N,Net-(J1-Pad4)*%
X167386000Y-155154000D03*
%TO.P,J4,2*%
%TO.N,+BATT*%
X167386000Y-153904000D03*
%TO.P,J4,1*%
%TO.N,GND*%
%TA.AperFunction,ComponentPad*%
G36*
G01*
X166936000Y-152254000D02*
X167836000Y-152254000D01*
G75*
G02*
X168036000Y-152454000I0J-200000D01*
G01*
X168036000Y-152854000D01*
G75*
G02*
X167836000Y-153054000I-200000J0D01*
G01*
X166936000Y-153054000D01*
G75*
G02*
X166736000Y-152854000I0J200000D01*
G01*
X166736000Y-152454000D01*
G75*
G02*
X166936000Y-152254000I200000J0D01*
G01*
G37*
%TD.AperFunction*%
%TD*%
D13*
%TO.P,J6,2*%
%TO.N,+BATT*%
X170347000Y-147066000D03*
%TO.P,J6,1*%
%TO.N,GND*%
%TA.AperFunction,ComponentPad*%
G36*
G01*
X173697000Y-146316000D02*
X173697000Y-147816000D01*
G75*
G02*
X173447000Y-148066000I-250000J0D01*
G01*
X172247000Y-148066000D01*
G75*
G02*
X171997000Y-147816000I0J250000D01*
G01*
X171997000Y-146316000D01*
G75*
G02*
X172247000Y-146066000I250000J0D01*
G01*
X173447000Y-146066000D01*
G75*
G02*
X173697000Y-146316000I0J-250000D01*
G01*
G37*
%TD.AperFunction*%
%TD*%
D14*
%TO.N,GND*%
X177038000Y-158877000D03*
%TD*%
D15*
%TO.N,GND*%
X178575271Y-140263962D02*
X178263962Y-140575271D01*
X178019369Y-140941331D01*
X177850890Y-141348075D01*
X177765000Y-141779872D01*
X177765000Y-142220128D01*
X177850890Y-142651925D01*
X178019369Y-143058669D01*
X178263962Y-143424729D01*
X178575271Y-143736038D01*
X178941331Y-143980631D01*
X179348075Y-144149110D01*
X179779872Y-144235000D01*
X180220128Y-144235000D01*
X180651925Y-144149110D01*
X181058669Y-143980631D01*
X181424729Y-143736038D01*
X181736038Y-143424729D01*
X181840000Y-143269138D01*
X181840001Y-160730863D01*
X181736038Y-160575271D01*
X181424729Y-160263962D01*
X181058669Y-160019369D01*
X180651925Y-159850890D01*
X180220128Y-159765000D01*
X179779872Y-159765000D01*
X179348075Y-159850890D01*
X178941331Y-160019369D01*
X178575271Y-160263962D01*
X178263962Y-160575271D01*
X178019369Y-160941331D01*
X177850890Y-161348075D01*
X177765000Y-161779872D01*
X177765000Y-162220128D01*
X177850890Y-162651925D01*
X178019369Y-163058669D01*
X178263962Y-163424729D01*
X178575271Y-163736038D01*
X178730861Y-163840000D01*
X161269139Y-163840000D01*
X161424729Y-163736038D01*
X161736038Y-163424729D01*
X161980631Y-163058669D01*
X162149110Y-162651925D01*
X162235000Y-162220128D01*
X162235000Y-161779872D01*
X162149110Y-161348075D01*
X161980631Y-160941331D01*
X161736038Y-160575271D01*
X161424729Y-160263962D01*
X161058669Y-160019369D01*
X160651925Y-159850890D01*
X160220128Y-159765000D01*
X159779872Y-159765000D01*
X159348075Y-159850890D01*
X158941331Y-160019369D01*
X158575271Y-160263962D01*
X158263962Y-160575271D01*
X158160000Y-160730861D01*
X158160000Y-155752187D01*
X158272604Y-155889396D01*
X158430203Y-156018734D01*
X158610007Y-156114841D01*
X158805105Y-156174024D01*
X158957162Y-156189000D01*
X159558838Y-156189000D01*
X159710895Y-156174024D01*
X159905993Y-156114841D01*
X160085797Y-156018734D01*
X160243396Y-155889396D01*
X160372734Y-155731797D01*
X160468841Y-155551993D01*
X160528024Y-155356895D01*
X160548007Y-155154000D01*
X160528024Y-154951105D01*
X160468841Y-154756007D01*
X160372734Y-154576203D01*
X160333996Y-154529000D01*
X160372734Y-154481797D01*
X160468841Y-154301993D01*
X160528024Y-154106895D01*
X160548007Y-153904000D01*
X162031993Y-153904000D01*
X162051976Y-154106895D01*
X162111159Y-154301993D01*
X162207266Y-154481797D01*
X162246004Y-154529000D01*
X162207266Y-154576203D01*
X162111159Y-154756007D01*
X162051976Y-154951105D01*
X162031993Y-155154000D01*
X162051976Y-155356895D01*
X162111159Y-155551993D01*
X162207266Y-155731797D01*
X162336604Y-155889396D01*
X162494203Y-156018734D01*
X162674007Y-156114841D01*
X162869105Y-156174024D01*
X163021162Y-156189000D01*
X163622838Y-156189000D01*
X163774895Y-156174024D01*
X163969993Y-156114841D01*
X164149797Y-156018734D01*
X164307396Y-155889396D01*
X164436734Y-155731797D01*
X164532841Y-155551993D01*
X164592024Y-155356895D01*
X164612007Y-155154000D01*
X164592024Y-154951105D01*
X164532841Y-154756007D01*
X164436734Y-154576203D01*
X164397996Y-154529000D01*
X164436734Y-154481797D01*
X164532841Y-154301993D01*
X164592024Y-154106895D01*
X164612007Y-153904000D01*
X166095993Y-153904000D01*
X166115976Y-154106895D01*
X166175159Y-154301993D01*
X166271266Y-154481797D01*
X166310004Y-154529000D01*
X166271266Y-154576203D01*
X166175159Y-154756007D01*
X166115976Y-154951105D01*
X166095993Y-155154000D01*
X166115976Y-155356895D01*
X166175159Y-155551993D01*
X166271266Y-155731797D01*
X166400604Y-155889396D01*
X166558203Y-156018734D01*
X166738007Y-156114841D01*
X166933105Y-156174024D01*
X167085162Y-156189000D01*
X167686838Y-156189000D01*
X167838895Y-156174024D01*
X168033993Y-156114841D01*
X168213797Y-156018734D01*
X168371396Y-155889396D01*
X168500734Y-155731797D01*
X168594838Y-155555740D01*
X171997000Y-155555740D01*
X171997000Y-155848260D01*
X172054068Y-156135158D01*
X172166010Y-156405411D01*
X172328525Y-156648632D01*
X172535368Y-156855475D01*
X172778589Y-157017990D01*
X173048842Y-157129932D01*
X173335740Y-157187000D01*
X173628260Y-157187000D01*
X173915158Y-157129932D01*
X174185411Y-157017990D01*
X174428632Y-156855475D01*
X174635475Y-156648632D01*
X174752000Y-156474240D01*
X174868525Y-156648632D01*
X175075368Y-156855475D01*
X175318589Y-157017990D01*
X175588842Y-157129932D01*
X175875740Y-157187000D01*
X176168260Y-157187000D01*
X176455158Y-157129932D01*
X176725411Y-157017990D01*
X176968632Y-156855475D01*
X177175475Y-156648632D01*
X177337990Y-156405411D01*
X177449932Y-156135158D01*
X177507000Y-155848260D01*
X177507000Y-155555740D01*
X177449932Y-155268842D01*
X177337990Y-154998589D01*
X177175475Y-154755368D01*
X176968632Y-154548525D01*
X176725411Y-154386010D01*
X176455158Y-154274068D01*
X176168260Y-154217000D01*
X175875740Y-154217000D01*
X175588842Y-154274068D01*
X175318589Y-154386010D01*
X175075368Y-154548525D01*
X174868525Y-154755368D01*
X174752000Y-154929760D01*
X174635475Y-154755368D01*
X174428632Y-154548525D01*
X174185411Y-154386010D01*
X173915158Y-154274068D01*
X173628260Y-154217000D01*
X173335740Y-154217000D01*
X173048842Y-154274068D01*
X172778589Y-154386010D01*
X172535368Y-154548525D01*
X172328525Y-154755368D01*
X172166010Y-154998589D01*
X172054068Y-155268842D01*
X171997000Y-155555740D01*
X168594838Y-155555740D01*
X168596841Y-155551993D01*
X168656024Y-155356895D01*
X168676007Y-155154000D01*
X168656024Y-154951105D01*
X168596841Y-154756007D01*
X168500734Y-154576203D01*
X168461996Y-154529000D01*
X168500734Y-154481797D01*
X168596841Y-154301993D01*
X168656024Y-154106895D01*
X168676007Y-153904000D01*
X168656024Y-153701105D01*
X168596841Y-153506007D01*
X168500734Y-153326203D01*
X168371396Y-153168604D01*
X168213797Y-153039266D01*
X168033993Y-152943159D01*
X167838895Y-152883976D01*
X167686838Y-152869000D01*
X167085162Y-152869000D01*
X166933105Y-152883976D01*
X166738007Y-152943159D01*
X166558203Y-153039266D01*
X166400604Y-153168604D01*
X166271266Y-153326203D01*
X166175159Y-153506007D01*
X166115976Y-153701105D01*
X166095993Y-153904000D01*
X164612007Y-153904000D01*
X164592024Y-153701105D01*
X164532841Y-153506007D01*
X164436734Y-153326203D01*
X164307396Y-153168604D01*
X164149797Y-153039266D01*
X163969993Y-152943159D01*
X163774895Y-152883976D01*
X163622838Y-152869000D01*
X163021162Y-152869000D01*
X162869105Y-152883976D01*
X162674007Y-152943159D01*
X162494203Y-153039266D01*
X162336604Y-153168604D01*
X162207266Y-153326203D01*
X162111159Y-153506007D01*
X162051976Y-153701105D01*
X162031993Y-153904000D01*
X160548007Y-153904000D01*
X160528024Y-153701105D01*
X160468841Y-153506007D01*
X160372734Y-153326203D01*
X160243396Y-153168604D01*
X160085797Y-153039266D01*
X159905993Y-152943159D01*
X159710895Y-152883976D01*
X159558838Y-152869000D01*
X158957162Y-152869000D01*
X158805105Y-152883976D01*
X158610007Y-152943159D01*
X158430203Y-153039266D01*
X158272604Y-153168604D01*
X158160000Y-153305813D01*
X158160000Y-151999740D01*
X171997000Y-151999740D01*
X171997000Y-152292260D01*
X172054068Y-152579158D01*
X172166010Y-152849411D01*
X172328525Y-153092632D01*
X172535368Y-153299475D01*
X172778589Y-153461990D01*
X173048842Y-153573932D01*
X173335740Y-153631000D01*
X173628260Y-153631000D01*
X173915158Y-153573932D01*
X174185411Y-153461990D01*
X174428632Y-153299475D01*
X174635475Y-153092632D01*
X174752000Y-152918240D01*
X174868525Y-153092632D01*
X175075368Y-153299475D01*
X175318589Y-153461990D01*
X175588842Y-153573932D01*
X175875740Y-153631000D01*
X176168260Y-153631000D01*
X176455158Y-153573932D01*
X176725411Y-153461990D01*
X176968632Y-153299475D01*
X177175475Y-153092632D01*
X177337990Y-152849411D01*
X177449932Y-152579158D01*
X177507000Y-152292260D01*
X177507000Y-151999740D01*
X177449932Y-151712842D01*
X177337990Y-151442589D01*
X177175475Y-151199368D01*
X176968632Y-150992525D01*
X176725411Y-150830010D01*
X176455158Y-150718068D01*
X176168260Y-150661000D01*
X175875740Y-150661000D01*
X175588842Y-150718068D01*
X175318589Y-150830010D01*
X175075368Y-150992525D01*
X174868525Y-151199368D01*
X174752000Y-151373760D01*
X174635475Y-151199368D01*
X174428632Y-150992525D01*
X174185411Y-150830010D01*
X173915158Y-150718068D01*
X173628260Y-150661000D01*
X173335740Y-150661000D01*
X173048842Y-150718068D01*
X172778589Y-150830010D01*
X172535368Y-150992525D01*
X172328525Y-151199368D01*
X172166010Y-151442589D01*
X172054068Y-151712842D01*
X171997000Y-151999740D01*
X158160000Y-151999740D01*
X158160000Y-146843050D01*
X168862000Y-146843050D01*
X168862000Y-147288949D01*
X168883487Y-147507110D01*
X168968401Y-147787033D01*
X169106294Y-148045013D01*
X169291866Y-148271134D01*
X169517986Y-148456706D01*
X169775966Y-148594599D01*
X170055889Y-148679513D01*
X170347000Y-148708185D01*
X170638110Y-148679513D01*
X170918033Y-148594599D01*
X171176013Y-148456706D01*
X171402134Y-148271134D01*
X171587706Y-148045014D01*
X171725599Y-147787034D01*
X171810513Y-147507111D01*
X171832000Y-147288950D01*
X171832000Y-146843051D01*
X171810513Y-146624890D01*
X171725599Y-146344967D01*
X171587706Y-146086986D01*
X171402134Y-145860866D01*
X171176014Y-145675294D01*
X170918034Y-145537401D01*
X170638111Y-145452487D01*
X170347000Y-145423815D01*
X170055890Y-145452487D01*
X169775967Y-145537401D01*
X169517987Y-145675294D01*
X169291866Y-145860866D01*
X169106294Y-146086986D01*
X168968401Y-146344966D01*
X168883487Y-146624889D01*
X168862000Y-146843050D01*
X158160000Y-146843050D01*
X158160000Y-143269139D01*
X158263962Y-143424729D01*
X158575271Y-143736038D01*
X158941331Y-143980631D01*
X159348075Y-144149110D01*
X159779872Y-144235000D01*
X160220128Y-144235000D01*
X160651925Y-144149110D01*
X161058669Y-143980631D01*
X161424729Y-143736038D01*
X161736038Y-143424729D01*
X161980631Y-143058669D01*
X162149110Y-142651925D01*
X162235000Y-142220128D01*
X162235000Y-141779872D01*
X162149110Y-141348075D01*
X161980631Y-140941331D01*
X161736038Y-140575271D01*
X161424729Y-140263962D01*
X161269139Y-140160000D01*
X178730861Y-140160000D01*
X178575271Y-140263962D01*
%TA.AperFunction,Conductor*%
D16*
G36*
X178575271Y-140263962D02*
G01*
X178263962Y-140575271D01*
X178019369Y-140941331D01*
X177850890Y-141348075D01*
X177765000Y-141779872D01*
X177765000Y-142220128D01*
X177850890Y-142651925D01*
X178019369Y-143058669D01*
X178263962Y-143424729D01*
X178575271Y-143736038D01*
X178941331Y-143980631D01*
X179348075Y-144149110D01*
X179779872Y-144235000D01*
X180220128Y-144235000D01*
X180651925Y-144149110D01*
X181058669Y-143980631D01*
X181424729Y-143736038D01*
X181736038Y-143424729D01*
X181840000Y-143269138D01*
X181840001Y-160730863D01*
X181736038Y-160575271D01*
X181424729Y-160263962D01*
X181058669Y-160019369D01*
X180651925Y-159850890D01*
X180220128Y-159765000D01*
X179779872Y-159765000D01*
X179348075Y-159850890D01*
X178941331Y-160019369D01*
X178575271Y-160263962D01*
X178263962Y-160575271D01*
X178019369Y-160941331D01*
X177850890Y-161348075D01*
X177765000Y-161779872D01*
X177765000Y-162220128D01*
X177850890Y-162651925D01*
X178019369Y-163058669D01*
X178263962Y-163424729D01*
X178575271Y-163736038D01*
X178730861Y-163840000D01*
X161269139Y-163840000D01*
X161424729Y-163736038D01*
X161736038Y-163424729D01*
X161980631Y-163058669D01*
X162149110Y-162651925D01*
X162235000Y-162220128D01*
X162235000Y-161779872D01*
X162149110Y-161348075D01*
X161980631Y-160941331D01*
X161736038Y-160575271D01*
X161424729Y-160263962D01*
X161058669Y-160019369D01*
X160651925Y-159850890D01*
X160220128Y-159765000D01*
X159779872Y-159765000D01*
X159348075Y-159850890D01*
X158941331Y-160019369D01*
X158575271Y-160263962D01*
X158263962Y-160575271D01*
X158160000Y-160730861D01*
X158160000Y-155752187D01*
X158272604Y-155889396D01*
X158430203Y-156018734D01*
X158610007Y-156114841D01*
X158805105Y-156174024D01*
X158957162Y-156189000D01*
X159558838Y-156189000D01*
X159710895Y-156174024D01*
X159905993Y-156114841D01*
X160085797Y-156018734D01*
X160243396Y-155889396D01*
X160372734Y-155731797D01*
X160468841Y-155551993D01*
X160528024Y-155356895D01*
X160548007Y-155154000D01*
X160528024Y-154951105D01*
X160468841Y-154756007D01*
X160372734Y-154576203D01*
X160333996Y-154529000D01*
X160372734Y-154481797D01*
X160468841Y-154301993D01*
X160528024Y-154106895D01*
X160548007Y-153904000D01*
X162031993Y-153904000D01*
X162051976Y-154106895D01*
X162111159Y-154301993D01*
X162207266Y-154481797D01*
X162246004Y-154529000D01*
X162207266Y-154576203D01*
X162111159Y-154756007D01*
X162051976Y-154951105D01*
X162031993Y-155154000D01*
X162051976Y-155356895D01*
X162111159Y-155551993D01*
X162207266Y-155731797D01*
X162336604Y-155889396D01*
X162494203Y-156018734D01*
X162674007Y-156114841D01*
X162869105Y-156174024D01*
X163021162Y-156189000D01*
X163622838Y-156189000D01*
X163774895Y-156174024D01*
X163969993Y-156114841D01*
X164149797Y-156018734D01*
X164307396Y-155889396D01*
X164436734Y-155731797D01*
X164532841Y-155551993D01*
X164592024Y-155356895D01*
X164612007Y-155154000D01*
X164592024Y-154951105D01*
X164532841Y-154756007D01*
X164436734Y-154576203D01*
X164397996Y-154529000D01*
X164436734Y-154481797D01*
X164532841Y-154301993D01*
X164592024Y-154106895D01*
X164612007Y-153904000D01*
X166095993Y-153904000D01*
X166115976Y-154106895D01*
X166175159Y-154301993D01*
X166271266Y-154481797D01*
X166310004Y-154529000D01*
X166271266Y-154576203D01*
X166175159Y-154756007D01*
X166115976Y-154951105D01*
X166095993Y-155154000D01*
X166115976Y-155356895D01*
X166175159Y-155551993D01*
X166271266Y-155731797D01*
X166400604Y-155889396D01*
X166558203Y-156018734D01*
X166738007Y-156114841D01*
X166933105Y-156174024D01*
X167085162Y-156189000D01*
X167686838Y-156189000D01*
X167838895Y-156174024D01*
X168033993Y-156114841D01*
X168213797Y-156018734D01*
X168371396Y-155889396D01*
X168500734Y-155731797D01*
X168594838Y-155555740D01*
X171997000Y-155555740D01*
X171997000Y-155848260D01*
X172054068Y-156135158D01*
X172166010Y-156405411D01*
X172328525Y-156648632D01*
X172535368Y-156855475D01*
X172778589Y-157017990D01*
X173048842Y-157129932D01*
X173335740Y-157187000D01*
X173628260Y-157187000D01*
X173915158Y-157129932D01*
X174185411Y-157017990D01*
X174428632Y-156855475D01*
X174635475Y-156648632D01*
X174752000Y-156474240D01*
X174868525Y-156648632D01*
X175075368Y-156855475D01*
X175318589Y-157017990D01*
X175588842Y-157129932D01*
X175875740Y-157187000D01*
X176168260Y-157187000D01*
X176455158Y-157129932D01*
X176725411Y-157017990D01*
X176968632Y-156855475D01*
X177175475Y-156648632D01*
X177337990Y-156405411D01*
X177449932Y-156135158D01*
X177507000Y-155848260D01*
X177507000Y-155555740D01*
X177449932Y-155268842D01*
X177337990Y-154998589D01*
X177175475Y-154755368D01*
X176968632Y-154548525D01*
X176725411Y-154386010D01*
X176455158Y-154274068D01*
X176168260Y-154217000D01*
X175875740Y-154217000D01*
X175588842Y-154274068D01*
X175318589Y-154386010D01*
X175075368Y-154548525D01*
X174868525Y-154755368D01*
X174752000Y-154929760D01*
X174635475Y-154755368D01*
X174428632Y-154548525D01*
X174185411Y-154386010D01*
X173915158Y-154274068D01*
X173628260Y-154217000D01*
X173335740Y-154217000D01*
X173048842Y-154274068D01*
X172778589Y-154386010D01*
X172535368Y-154548525D01*
X172328525Y-154755368D01*
X172166010Y-154998589D01*
X172054068Y-155268842D01*
X171997000Y-155555740D01*
X168594838Y-155555740D01*
X168596841Y-155551993D01*
X168656024Y-155356895D01*
X168676007Y-155154000D01*
X168656024Y-154951105D01*
X168596841Y-154756007D01*
X168500734Y-154576203D01*
X168461996Y-154529000D01*
X168500734Y-154481797D01*
X168596841Y-154301993D01*
X168656024Y-154106895D01*
X168676007Y-153904000D01*
X168656024Y-153701105D01*
X168596841Y-153506007D01*
X168500734Y-153326203D01*
X168371396Y-153168604D01*
X168213797Y-153039266D01*
X168033993Y-152943159D01*
X167838895Y-152883976D01*
X167686838Y-152869000D01*
X167085162Y-152869000D01*
X166933105Y-152883976D01*
X166738007Y-152943159D01*
X166558203Y-153039266D01*
X166400604Y-153168604D01*
X166271266Y-153326203D01*
X166175159Y-153506007D01*
X166115976Y-153701105D01*
X166095993Y-153904000D01*
X164612007Y-153904000D01*
X164592024Y-153701105D01*
X164532841Y-153506007D01*
X164436734Y-153326203D01*
X164307396Y-153168604D01*
X164149797Y-153039266D01*
X163969993Y-152943159D01*
X163774895Y-152883976D01*
X163622838Y-152869000D01*
X163021162Y-152869000D01*
X162869105Y-152883976D01*
X162674007Y-152943159D01*
X162494203Y-153039266D01*
X162336604Y-153168604D01*
X162207266Y-153326203D01*
X162111159Y-153506007D01*
X162051976Y-153701105D01*
X162031993Y-153904000D01*
X160548007Y-153904000D01*
X160528024Y-153701105D01*
X160468841Y-153506007D01*
X160372734Y-153326203D01*
X160243396Y-153168604D01*
X160085797Y-153039266D01*
X159905993Y-152943159D01*
X159710895Y-152883976D01*
X159558838Y-152869000D01*
X158957162Y-152869000D01*
X158805105Y-152883976D01*
X158610007Y-152943159D01*
X158430203Y-153039266D01*
X158272604Y-153168604D01*
X158160000Y-153305813D01*
X158160000Y-151999740D01*
X171997000Y-151999740D01*
X171997000Y-152292260D01*
X172054068Y-152579158D01*
X172166010Y-152849411D01*
X172328525Y-153092632D01*
X172535368Y-153299475D01*
X172778589Y-153461990D01*
X173048842Y-153573932D01*
X173335740Y-153631000D01*
X173628260Y-153631000D01*
X173915158Y-153573932D01*
X174185411Y-153461990D01*
X174428632Y-153299475D01*
X174635475Y-153092632D01*
X174752000Y-152918240D01*
X174868525Y-153092632D01*
X175075368Y-153299475D01*
X175318589Y-153461990D01*
X175588842Y-153573932D01*
X175875740Y-153631000D01*
X176168260Y-153631000D01*
X176455158Y-153573932D01*
X176725411Y-153461990D01*
X176968632Y-153299475D01*
X177175475Y-153092632D01*
X177337990Y-152849411D01*
X177449932Y-152579158D01*
X177507000Y-152292260D01*
X177507000Y-151999740D01*
X177449932Y-151712842D01*
X177337990Y-151442589D01*
X177175475Y-151199368D01*
X176968632Y-150992525D01*
X176725411Y-150830010D01*
X176455158Y-150718068D01*
X176168260Y-150661000D01*
X175875740Y-150661000D01*
X175588842Y-150718068D01*
X175318589Y-150830010D01*
X175075368Y-150992525D01*
X174868525Y-151199368D01*
X174752000Y-151373760D01*
X174635475Y-151199368D01*
X174428632Y-150992525D01*
X174185411Y-150830010D01*
X173915158Y-150718068D01*
X173628260Y-150661000D01*
X173335740Y-150661000D01*
X173048842Y-150718068D01*
X172778589Y-150830010D01*
X172535368Y-150992525D01*
X172328525Y-151199368D01*
X172166010Y-151442589D01*
X172054068Y-151712842D01*
X171997000Y-151999740D01*
X158160000Y-151999740D01*
X158160000Y-146843050D01*
X168862000Y-146843050D01*
X168862000Y-147288949D01*
X168883487Y-147507110D01*
X168968401Y-147787033D01*
X169106294Y-148045013D01*
X169291866Y-148271134D01*
X169517986Y-148456706D01*
X169775966Y-148594599D01*
X170055889Y-148679513D01*
X170347000Y-148708185D01*
X170638110Y-148679513D01*
X170918033Y-148594599D01*
X171176013Y-148456706D01*
X171402134Y-148271134D01*
X171587706Y-148045014D01*
X171725599Y-147787034D01*
X171810513Y-147507111D01*
X171832000Y-147288950D01*
X171832000Y-146843051D01*
X171810513Y-146624890D01*
X171725599Y-146344967D01*
X171587706Y-146086986D01*
X171402134Y-145860866D01*
X171176014Y-145675294D01*
X170918034Y-145537401D01*
X170638111Y-145452487D01*
X170347000Y-145423815D01*
X170055890Y-145452487D01*
X169775967Y-145537401D01*
X169517987Y-145675294D01*
X169291866Y-145860866D01*
X169106294Y-146086986D01*
X168968401Y-146344966D01*
X168883487Y-146624889D01*
X168862000Y-146843050D01*
X158160000Y-146843050D01*
X158160000Y-143269139D01*
X158263962Y-143424729D01*
X158575271Y-143736038D01*
X158941331Y-143980631D01*
X159348075Y-144149110D01*
X159779872Y-144235000D01*
X160220128Y-144235000D01*
X160651925Y-144149110D01*
X161058669Y-143980631D01*
X161424729Y-143736038D01*
X161736038Y-143424729D01*
X161980631Y-143058669D01*
X162149110Y-142651925D01*
X162235000Y-142220128D01*
X162235000Y-141779872D01*
X162149110Y-141348075D01*
X161980631Y-140941331D01*
X161736038Y-140575271D01*
X161424729Y-140263962D01*
X161269139Y-140160000D01*
X178730861Y-140160000D01*
X178575271Y-140263962D01*
G37*
%TD.AperFunction*%
%TD*%
M02*
