M48
; DRILL file {KiCad (5.1.9)-1} date 10/08/21 16:07:07
; FORMAT={-:-/ absolute / inch / decimal}
; #@! TF.CreationDate,2021-10-08T16:07:07+01:00
; #@! TF.GenerationSoftware,Kicad,Pcbnew,(5.1.9)-1
FMAT,2
INCH
T1C0.0157
T2C0.0197
T3C0.0394
T4C0.1260
%
G90
G05
T1
X6.97Y-6.255
T2
X6.27Y-6.01
X6.27Y-6.0592
X6.27Y-6.1084
X6.43Y-6.01
X6.43Y-6.0592
X6.43Y-6.1084
X6.59Y-6.01
X6.59Y-6.0592
X6.59Y-6.1084
T3
X6.7066Y-5.79
X6.805Y-5.79
X6.83Y-5.99
X6.83Y-6.13
X6.93Y-5.99
X6.93Y-6.13
X7.03Y-5.99
X7.03Y-6.13
T4
X6.2992Y-5.5906
X6.2992Y-6.378
X7.0866Y-5.5906
X7.0866Y-6.378
T0
M30
