%TF.GenerationSoftware,KiCad,Pcbnew,(5.1.9)-1*%
%TF.CreationDate,2021-10-08T16:07:11+01:00*%
%TF.ProjectId,5-servos-jst,352d7365-7276-46f7-932d-6a73742e6b69,rev?*%
%TF.SameCoordinates,Original*%
%TF.FileFunction,Copper,L1,Top*%
%TF.FilePolarity,Positive*%
%FSLAX46Y46*%
G04 Gerber Fmt 4.6, Leading zero omitted, Abs format (unit mm)*
G04 Created by KiCad (PCBNEW (5.1.9)-1) date 2021-10-08 16:07:11*
%MOMM*%
%LPD*%
G01*
G04 APERTURE LIST*
%TA.AperFunction,ComponentPad*%
%ADD10O,1.300000X0.800000*%
%TD*%
%TA.AperFunction,ComponentPad*%
%ADD11O,1.700000X1.700000*%
%TD*%
%TA.AperFunction,ComponentPad*%
%ADD12R,1.700000X1.700000*%
%TD*%
%TA.AperFunction,ComponentPad*%
%ADD13O,1.700000X2.000000*%
%TD*%
%TA.AperFunction,ViaPad*%
%ADD14C,0.800000*%
%TD*%
%TA.AperFunction,Conductor*%
%ADD15C,0.600000*%
%TD*%
%TA.AperFunction,Conductor*%
%ADD16C,0.254000*%
%TD*%
%TA.AperFunction,Conductor*%
%ADD17C,0.100000*%
%TD*%
G04 APERTURE END LIST*
D10*
%TO.P,J10,3*%
%TO.N,Net-(J1-Pad1)*%
X159258000Y-155154000D03*
%TO.P,J10,2*%
%TO.N,+BATT*%
X159258000Y-153904000D03*
%TO.P,J10,1*%
%TO.N,GND*%
%TA.AperFunction,ComponentPad*%
G36*
G01*
X158808000Y-152254000D02*
X159708000Y-152254000D01*
G75*
G02*
X159908000Y-152454000I0J-200000D01*
G01*
X159908000Y-152854000D01*
G75*
G02*
X159708000Y-153054000I-200000J0D01*
G01*
X158808000Y-153054000D01*
G75*
G02*
X158608000Y-152854000I0J200000D01*
G01*
X158608000Y-152454000D01*
G75*
G02*
X158808000Y-152254000I200000J0D01*
G01*
G37*
%TD.AperFunction*%
%TD*%
%TO.P,J5,3*%
%TO.N,Net-(J1-Pad3)*%
X163322000Y-155154000D03*
%TO.P,J5,2*%
%TO.N,+BATT*%
X163322000Y-153904000D03*
%TO.P,J5,1*%
%TO.N,GND*%
%TA.AperFunction,ComponentPad*%
G36*
G01*
X162872000Y-152254000D02*
X163772000Y-152254000D01*
G75*
G02*
X163972000Y-152454000I0J-200000D01*
G01*
X163972000Y-152854000D01*
G75*
G02*
X163772000Y-153054000I-200000J0D01*
G01*
X162872000Y-153054000D01*
G75*
G02*
X162672000Y-152854000I0J200000D01*
G01*
X162672000Y-152454000D01*
G75*
G02*
X162872000Y-152254000I200000J0D01*
G01*
G37*
%TD.AperFunction*%
%TD*%
D11*
%TO.P,J3,3*%
%TO.N,Net-(J1-Pad5)*%
X173482000Y-152146000D03*
%TO.P,J3,2*%
%TO.N,+BATT*%
X176022000Y-152146000D03*
D12*
%TO.P,J3,1*%
%TO.N,GND*%
X178562000Y-152146000D03*
%TD*%
D11*
%TO.P,J2,3*%
%TO.N,Net-(J1-Pad6)*%
X173482000Y-155702000D03*
%TO.P,J2,2*%
%TO.N,+BATT*%
X176022000Y-155702000D03*
D12*
%TO.P,J2,1*%
%TO.N,GND*%
X178562000Y-155702000D03*
%TD*%
D10*
%TO.P,J4,3*%
%TO.N,Net-(J1-Pad4)*%
X167386000Y-155154000D03*
%TO.P,J4,2*%
%TO.N,+BATT*%
X167386000Y-153904000D03*
%TO.P,J4,1*%
%TO.N,GND*%
%TA.AperFunction,ComponentPad*%
G36*
G01*
X166936000Y-152254000D02*
X167836000Y-152254000D01*
G75*
G02*
X168036000Y-152454000I0J-200000D01*
G01*
X168036000Y-152854000D01*
G75*
G02*
X167836000Y-153054000I-200000J0D01*
G01*
X166936000Y-153054000D01*
G75*
G02*
X166736000Y-152854000I0J200000D01*
G01*
X166736000Y-152454000D01*
G75*
G02*
X166936000Y-152254000I200000J0D01*
G01*
G37*
%TD.AperFunction*%
%TD*%
%TO.P,J1,MP*%
%TO.N,N/C*%
%TA.AperFunction,SMDPad,CuDef*%
G36*
G01*
X174934000Y-162603000D02*
X174934000Y-161353000D01*
G75*
G02*
X175159000Y-161128000I225000J0D01*
G01*
X175609000Y-161128000D01*
G75*
G02*
X175834000Y-161353000I0J-225000D01*
G01*
X175834000Y-162603000D01*
G75*
G02*
X175609000Y-162828000I-225000J0D01*
G01*
X175159000Y-162828000D01*
G75*
G02*
X174934000Y-162603000I0J225000D01*
G01*
G37*
%TD.AperFunction*%
%TA.AperFunction,SMDPad,CuDef*%
G36*
G01*
X165034000Y-162603000D02*
X165034000Y-161353000D01*
G75*
G02*
X165259000Y-161128000I225000J0D01*
G01*
X165709000Y-161128000D01*
G75*
G02*
X165934000Y-161353000I0J-225000D01*
G01*
X165934000Y-162603000D01*
G75*
G02*
X165709000Y-162828000I-225000J0D01*
G01*
X165259000Y-162828000D01*
G75*
G02*
X165034000Y-162603000I0J225000D01*
G01*
G37*
%TD.AperFunction*%
%TO.P,J1,8*%
%TO.N,GND*%
%TA.AperFunction,SMDPad,CuDef*%
G36*
G01*
X173634000Y-159328000D02*
X173634000Y-158378000D01*
G75*
G02*
X173784000Y-158228000I150000J0D01*
G01*
X174084000Y-158228000D01*
G75*
G02*
X174234000Y-158378000I0J-150000D01*
G01*
X174234000Y-159328000D01*
G75*
G02*
X174084000Y-159478000I-150000J0D01*
G01*
X173784000Y-159478000D01*
G75*
G02*
X173634000Y-159328000I0J150000D01*
G01*
G37*
%TD.AperFunction*%
%TO.P,J1,7*%
%TO.N,Net-(J1-Pad7)*%
%TA.AperFunction,SMDPad,CuDef*%
G36*
G01*
X172634000Y-159328000D02*
X172634000Y-158378000D01*
G75*
G02*
X172784000Y-158228000I150000J0D01*
G01*
X173084000Y-158228000D01*
G75*
G02*
X173234000Y-158378000I0J-150000D01*
G01*
X173234000Y-159328000D01*
G75*
G02*
X173084000Y-159478000I-150000J0D01*
G01*
X172784000Y-159478000D01*
G75*
G02*
X172634000Y-159328000I0J150000D01*
G01*
G37*
%TD.AperFunction*%
%TO.P,J1,6*%
%TO.N,Net-(J1-Pad6)*%
%TA.AperFunction,SMDPad,CuDef*%
G36*
G01*
X171634000Y-159328000D02*
X171634000Y-158378000D01*
G75*
G02*
X171784000Y-158228000I150000J0D01*
G01*
X172084000Y-158228000D01*
G75*
G02*
X172234000Y-158378000I0J-150000D01*
G01*
X172234000Y-159328000D01*
G75*
G02*
X172084000Y-159478000I-150000J0D01*
G01*
X171784000Y-159478000D01*
G75*
G02*
X171634000Y-159328000I0J150000D01*
G01*
G37*
%TD.AperFunction*%
%TO.P,J1,5*%
%TO.N,Net-(J1-Pad5)*%
%TA.AperFunction,SMDPad,CuDef*%
G36*
G01*
X170634000Y-159328000D02*
X170634000Y-158378000D01*
G75*
G02*
X170784000Y-158228000I150000J0D01*
G01*
X171084000Y-158228000D01*
G75*
G02*
X171234000Y-158378000I0J-150000D01*
G01*
X171234000Y-159328000D01*
G75*
G02*
X171084000Y-159478000I-150000J0D01*
G01*
X170784000Y-159478000D01*
G75*
G02*
X170634000Y-159328000I0J150000D01*
G01*
G37*
%TD.AperFunction*%
%TO.P,J1,4*%
%TO.N,Net-(J1-Pad4)*%
%TA.AperFunction,SMDPad,CuDef*%
G36*
G01*
X169634000Y-159328000D02*
X169634000Y-158378000D01*
G75*
G02*
X169784000Y-158228000I150000J0D01*
G01*
X170084000Y-158228000D01*
G75*
G02*
X170234000Y-158378000I0J-150000D01*
G01*
X170234000Y-159328000D01*
G75*
G02*
X170084000Y-159478000I-150000J0D01*
G01*
X169784000Y-159478000D01*
G75*
G02*
X169634000Y-159328000I0J150000D01*
G01*
G37*
%TD.AperFunction*%
%TO.P,J1,3*%
%TO.N,Net-(J1-Pad3)*%
%TA.AperFunction,SMDPad,CuDef*%
G36*
G01*
X168634000Y-159328000D02*
X168634000Y-158378000D01*
G75*
G02*
X168784000Y-158228000I150000J0D01*
G01*
X169084000Y-158228000D01*
G75*
G02*
X169234000Y-158378000I0J-150000D01*
G01*
X169234000Y-159328000D01*
G75*
G02*
X169084000Y-159478000I-150000J0D01*
G01*
X168784000Y-159478000D01*
G75*
G02*
X168634000Y-159328000I0J150000D01*
G01*
G37*
%TD.AperFunction*%
%TO.P,J1,2*%
%TO.N,N/C*%
%TA.AperFunction,SMDPad,CuDef*%
G36*
G01*
X167634000Y-159328000D02*
X167634000Y-158378000D01*
G75*
G02*
X167784000Y-158228000I150000J0D01*
G01*
X168084000Y-158228000D01*
G75*
G02*
X168234000Y-158378000I0J-150000D01*
G01*
X168234000Y-159328000D01*
G75*
G02*
X168084000Y-159478000I-150000J0D01*
G01*
X167784000Y-159478000D01*
G75*
G02*
X167634000Y-159328000I0J150000D01*
G01*
G37*
%TD.AperFunction*%
%TO.P,J1,1*%
%TO.N,Net-(J1-Pad1)*%
%TA.AperFunction,SMDPad,CuDef*%
G36*
G01*
X166634000Y-159328000D02*
X166634000Y-158378000D01*
G75*
G02*
X166784000Y-158228000I150000J0D01*
G01*
X167084000Y-158228000D01*
G75*
G02*
X167234000Y-158378000I0J-150000D01*
G01*
X167234000Y-159328000D01*
G75*
G02*
X167084000Y-159478000I-150000J0D01*
G01*
X166784000Y-159478000D01*
G75*
G02*
X166634000Y-159328000I0J150000D01*
G01*
G37*
%TD.AperFunction*%
%TD*%
%TO.P,J13,1*%
%TO.N,Net-(J1-Pad7)*%
%TA.AperFunction,SMDPad,CuDef*%
G36*
G01*
X179820000Y-158869000D02*
X178320000Y-158869000D01*
G75*
G02*
X178070000Y-158619000I0J250000D01*
G01*
X178070000Y-158119000D01*
G75*
G02*
X178320000Y-157869000I250000J0D01*
G01*
X179820000Y-157869000D01*
G75*
G02*
X180070000Y-158119000I0J-250000D01*
G01*
X180070000Y-158619000D01*
G75*
G02*
X179820000Y-158869000I-250000J0D01*
G01*
G37*
%TD.AperFunction*%
%TD*%
%TO.P,J12,1*%
%TO.N,Net-(J1-Pad1)*%
%TA.AperFunction,SMDPad,CuDef*%
G36*
G01*
X166632000Y-163437000D02*
X166632000Y-161937000D01*
G75*
G02*
X166882000Y-161687000I250000J0D01*
G01*
X167382000Y-161687000D01*
G75*
G02*
X167632000Y-161937000I0J-250000D01*
G01*
X167632000Y-163437000D01*
G75*
G02*
X167382000Y-163687000I-250000J0D01*
G01*
X166882000Y-163687000D01*
G75*
G02*
X166632000Y-163437000I0J250000D01*
G01*
G37*
%TD.AperFunction*%
%TD*%
%TO.P,J11,1*%
%TO.N,Net-(J1-Pad3)*%
%TA.AperFunction,SMDPad,CuDef*%
G36*
G01*
X168283000Y-163437000D02*
X168283000Y-161937000D01*
G75*
G02*
X168533000Y-161687000I250000J0D01*
G01*
X169033000Y-161687000D01*
G75*
G02*
X169283000Y-161937000I0J-250000D01*
G01*
X169283000Y-163437000D01*
G75*
G02*
X169033000Y-163687000I-250000J0D01*
G01*
X168533000Y-163687000D01*
G75*
G02*
X168283000Y-163437000I0J250000D01*
G01*
G37*
%TD.AperFunction*%
%TD*%
D13*
%TO.P,J6,2*%
%TO.N,+BATT*%
X170347000Y-147066000D03*
%TO.P,J6,1*%
%TO.N,GND*%
%TA.AperFunction,ComponentPad*%
G36*
G01*
X173697000Y-146316000D02*
X173697000Y-147816000D01*
G75*
G02*
X173447000Y-148066000I-250000J0D01*
G01*
X172247000Y-148066000D01*
G75*
G02*
X171997000Y-147816000I0J250000D01*
G01*
X171997000Y-146316000D01*
G75*
G02*
X172247000Y-146066000I250000J0D01*
G01*
X173447000Y-146066000D01*
G75*
G02*
X173697000Y-146316000I0J-250000D01*
G01*
G37*
%TD.AperFunction*%
%TD*%
%TO.P,J9,1*%
%TO.N,Net-(J1-Pad4)*%
%TA.AperFunction,SMDPad,CuDef*%
G36*
G01*
X169934000Y-163437000D02*
X169934000Y-161937000D01*
G75*
G02*
X170184000Y-161687000I250000J0D01*
G01*
X170684000Y-161687000D01*
G75*
G02*
X170934000Y-161937000I0J-250000D01*
G01*
X170934000Y-163437000D01*
G75*
G02*
X170684000Y-163687000I-250000J0D01*
G01*
X170184000Y-163687000D01*
G75*
G02*
X169934000Y-163437000I0J250000D01*
G01*
G37*
%TD.AperFunction*%
%TD*%
%TO.P,J8,1*%
%TO.N,Net-(J1-Pad5)*%
%TA.AperFunction,SMDPad,CuDef*%
G36*
G01*
X171585000Y-163437000D02*
X171585000Y-161937000D01*
G75*
G02*
X171835000Y-161687000I250000J0D01*
G01*
X172335000Y-161687000D01*
G75*
G02*
X172585000Y-161937000I0J-250000D01*
G01*
X172585000Y-163437000D01*
G75*
G02*
X172335000Y-163687000I-250000J0D01*
G01*
X171835000Y-163687000D01*
G75*
G02*
X171585000Y-163437000I0J250000D01*
G01*
G37*
%TD.AperFunction*%
%TD*%
%TO.P,J7,1*%
%TO.N,Net-(J1-Pad6)*%
%TA.AperFunction,SMDPad,CuDef*%
G36*
G01*
X173236000Y-163437000D02*
X173236000Y-161937000D01*
G75*
G02*
X173486000Y-161687000I250000J0D01*
G01*
X173986000Y-161687000D01*
G75*
G02*
X174236000Y-161937000I0J-250000D01*
G01*
X174236000Y-163437000D01*
G75*
G02*
X173986000Y-163687000I-250000J0D01*
G01*
X173486000Y-163687000D01*
G75*
G02*
X173236000Y-163437000I0J250000D01*
G01*
G37*
%TD.AperFunction*%
%TD*%
D14*
%TO.N,GND*%
X177038000Y-158877000D03*
%TD*%
D15*
%TO.N,Net-(J1-Pad3)*%
X168934000Y-162536000D02*
X168783000Y-162687000D01*
X168934000Y-158853000D02*
X168934000Y-162536000D01*
X168934000Y-158308744D02*
X168105256Y-157480000D01*
X168934000Y-158853000D02*
X168934000Y-158308744D01*
X165648000Y-157480000D02*
X163322000Y-155154000D01*
X168105256Y-157480000D02*
X165648000Y-157480000D01*
%TO.N,Net-(J1-Pad1)*%
X166934000Y-162489000D02*
X167132000Y-162687000D01*
X166934000Y-158853000D02*
X166934000Y-162489000D01*
X162957000Y-158853000D02*
X166934000Y-158853000D01*
X159258000Y-155154000D02*
X162957000Y-158853000D01*
%TO.N,GND*%
X177014000Y-158853000D02*
X177038000Y-158877000D01*
X173934000Y-158853000D02*
X177014000Y-158853000D01*
%TO.N,Net-(J1-Pad7)*%
X178428990Y-157727990D02*
X179070000Y-158369000D01*
X173434010Y-157727990D02*
X178428990Y-157727990D01*
X172934000Y-158228000D02*
X173434010Y-157727990D01*
X172934000Y-158853000D02*
X172934000Y-158228000D01*
%TO.N,Net-(J1-Pad6)*%
X173736000Y-162206616D02*
X173736000Y-162687000D01*
X171934000Y-160404616D02*
X173736000Y-162206616D01*
X171934000Y-158853000D02*
X171934000Y-160404616D01*
X171934000Y-157250000D02*
X173482000Y-155702000D01*
X171934000Y-158853000D02*
X171934000Y-157250000D01*
%TO.N,Net-(J1-Pad5)*%
X172085000Y-161687000D02*
X172085000Y-162687000D01*
X170934000Y-160536000D02*
X172085000Y-161687000D01*
X170934000Y-158853000D02*
X170934000Y-160536000D01*
X170934000Y-154694000D02*
X173482000Y-152146000D01*
X170934000Y-158853000D02*
X170934000Y-154694000D01*
%TO.N,Net-(J1-Pad4)*%
X169934000Y-162187000D02*
X170434000Y-162687000D01*
X169934000Y-158853000D02*
X169934000Y-162187000D01*
X169934000Y-157702000D02*
X167386000Y-155154000D01*
X169934000Y-158853000D02*
X169934000Y-157702000D01*
%TD*%
D16*
%TO.N,+BATT*%
X178575271Y-140263962D02*
X178263962Y-140575271D01*
X178019369Y-140941331D01*
X177850890Y-141348075D01*
X177765000Y-141779872D01*
X177765000Y-142220128D01*
X177850890Y-142651925D01*
X178019369Y-143058669D01*
X178263962Y-143424729D01*
X178575271Y-143736038D01*
X178941331Y-143980631D01*
X179348075Y-144149110D01*
X179779872Y-144235000D01*
X180220128Y-144235000D01*
X180651925Y-144149110D01*
X181058669Y-143980631D01*
X181424729Y-143736038D01*
X181736038Y-143424729D01*
X181840000Y-143269138D01*
X181840001Y-160730863D01*
X181736038Y-160575271D01*
X181424729Y-160263962D01*
X181058669Y-160019369D01*
X180651925Y-159850890D01*
X180220128Y-159765000D01*
X179779872Y-159765000D01*
X179348075Y-159850890D01*
X178941331Y-160019369D01*
X178575271Y-160263962D01*
X178263962Y-160575271D01*
X178019369Y-160941331D01*
X177850890Y-161348075D01*
X177765000Y-161779872D01*
X177765000Y-162220128D01*
X177850890Y-162651925D01*
X178019369Y-163058669D01*
X178263962Y-163424729D01*
X178575271Y-163736038D01*
X178730861Y-163840000D01*
X174772717Y-163840000D01*
X174806472Y-163776850D01*
X174857008Y-163610254D01*
X174874072Y-163437000D01*
X174874072Y-163414133D01*
X174990623Y-163449488D01*
X175159000Y-163466072D01*
X175609000Y-163466072D01*
X175777377Y-163449488D01*
X175939283Y-163400375D01*
X176088497Y-163320618D01*
X176219284Y-163213284D01*
X176326618Y-163082497D01*
X176406375Y-162933283D01*
X176455488Y-162771377D01*
X176472072Y-162603000D01*
X176472072Y-161353000D01*
X176455488Y-161184623D01*
X176406375Y-161022717D01*
X176326618Y-160873503D01*
X176219284Y-160742716D01*
X176088497Y-160635382D01*
X175939283Y-160555625D01*
X175777377Y-160506512D01*
X175609000Y-160489928D01*
X175159000Y-160489928D01*
X174990623Y-160506512D01*
X174828717Y-160555625D01*
X174679503Y-160635382D01*
X174548716Y-160742716D01*
X174441382Y-160873503D01*
X174361625Y-161022717D01*
X174332147Y-161119894D01*
X174325850Y-161116528D01*
X174159254Y-161065992D01*
X173986000Y-161048928D01*
X173900601Y-161048928D01*
X172967745Y-160116072D01*
X173084000Y-160116072D01*
X173237745Y-160100929D01*
X173385582Y-160056084D01*
X173434000Y-160030204D01*
X173482418Y-160056084D01*
X173630255Y-160100929D01*
X173784000Y-160116072D01*
X174084000Y-160116072D01*
X174237745Y-160100929D01*
X174385582Y-160056084D01*
X174521829Y-159983258D01*
X174641251Y-159885251D01*
X174721063Y-159788000D01*
X176538458Y-159788000D01*
X176547744Y-159794205D01*
X176736102Y-159872226D01*
X176936061Y-159912000D01*
X177139939Y-159912000D01*
X177339898Y-159872226D01*
X177528256Y-159794205D01*
X177697774Y-159680937D01*
X177841937Y-159536774D01*
X177926215Y-159410643D01*
X177980150Y-159439472D01*
X178146746Y-159490008D01*
X178320000Y-159507072D01*
X179820000Y-159507072D01*
X179993254Y-159490008D01*
X180159850Y-159439472D01*
X180313386Y-159357405D01*
X180447962Y-159246962D01*
X180558405Y-159112386D01*
X180640472Y-158958850D01*
X180691008Y-158792254D01*
X180708072Y-158619000D01*
X180708072Y-158119000D01*
X180691008Y-157945746D01*
X180640472Y-157779150D01*
X180558405Y-157625614D01*
X180447962Y-157491038D01*
X180313386Y-157380595D01*
X180159850Y-157298528D01*
X179993254Y-157247992D01*
X179820000Y-157230928D01*
X179254217Y-157230928D01*
X179213361Y-157190072D01*
X179412000Y-157190072D01*
X179536482Y-157177812D01*
X179656180Y-157141502D01*
X179766494Y-157082537D01*
X179863185Y-157003185D01*
X179942537Y-156906494D01*
X180001502Y-156796180D01*
X180037812Y-156676482D01*
X180050072Y-156552000D01*
X180050072Y-154852000D01*
X180037812Y-154727518D01*
X180001502Y-154607820D01*
X179942537Y-154497506D01*
X179863185Y-154400815D01*
X179766494Y-154321463D01*
X179656180Y-154262498D01*
X179536482Y-154226188D01*
X179412000Y-154213928D01*
X177712000Y-154213928D01*
X177587518Y-154226188D01*
X177467820Y-154262498D01*
X177357506Y-154321463D01*
X177260815Y-154400815D01*
X177181463Y-154497506D01*
X177122498Y-154607820D01*
X177086188Y-154727518D01*
X177073928Y-154852000D01*
X177073928Y-156552000D01*
X177086188Y-156676482D01*
X177121530Y-156792990D01*
X174491117Y-156792990D01*
X174635475Y-156648632D01*
X174797990Y-156405411D01*
X174909932Y-156135158D01*
X174967000Y-155848260D01*
X174967000Y-155555740D01*
X174909932Y-155268842D01*
X174797990Y-154998589D01*
X174635475Y-154755368D01*
X174428632Y-154548525D01*
X174185411Y-154386010D01*
X173915158Y-154274068D01*
X173628260Y-154217000D01*
X173335740Y-154217000D01*
X173048842Y-154274068D01*
X172778589Y-154386010D01*
X172535368Y-154548525D01*
X172328525Y-154755368D01*
X172166010Y-154998589D01*
X172054068Y-155268842D01*
X171997000Y-155555740D01*
X171997000Y-155848260D01*
X171999729Y-155861982D01*
X171869000Y-155992711D01*
X171869000Y-155081289D01*
X173322019Y-153628271D01*
X173335740Y-153631000D01*
X173628260Y-153631000D01*
X173915158Y-153573932D01*
X174185411Y-153461990D01*
X174428632Y-153299475D01*
X174635475Y-153092632D01*
X174797990Y-152849411D01*
X174909932Y-152579158D01*
X174967000Y-152292260D01*
X174967000Y-151999740D01*
X174909932Y-151712842D01*
X174797990Y-151442589D01*
X174700043Y-151296000D01*
X177073928Y-151296000D01*
X177073928Y-152996000D01*
X177086188Y-153120482D01*
X177122498Y-153240180D01*
X177181463Y-153350494D01*
X177260815Y-153447185D01*
X177357506Y-153526537D01*
X177467820Y-153585502D01*
X177587518Y-153621812D01*
X177712000Y-153634072D01*
X179412000Y-153634072D01*
X179536482Y-153621812D01*
X179656180Y-153585502D01*
X179766494Y-153526537D01*
X179863185Y-153447185D01*
X179942537Y-153350494D01*
X180001502Y-153240180D01*
X180037812Y-153120482D01*
X180050072Y-152996000D01*
X180050072Y-151296000D01*
X180037812Y-151171518D01*
X180001502Y-151051820D01*
X179942537Y-150941506D01*
X179863185Y-150844815D01*
X179766494Y-150765463D01*
X179656180Y-150706498D01*
X179536482Y-150670188D01*
X179412000Y-150657928D01*
X177712000Y-150657928D01*
X177587518Y-150670188D01*
X177467820Y-150706498D01*
X177357506Y-150765463D01*
X177260815Y-150844815D01*
X177181463Y-150941506D01*
X177122498Y-151051820D01*
X177086188Y-151171518D01*
X177073928Y-151296000D01*
X174700043Y-151296000D01*
X174635475Y-151199368D01*
X174428632Y-150992525D01*
X174185411Y-150830010D01*
X173915158Y-150718068D01*
X173628260Y-150661000D01*
X173335740Y-150661000D01*
X173048842Y-150718068D01*
X172778589Y-150830010D01*
X172535368Y-150992525D01*
X172328525Y-151199368D01*
X172166010Y-151442589D01*
X172054068Y-151712842D01*
X171997000Y-151999740D01*
X171997000Y-152292260D01*
X171999729Y-152305981D01*
X170305336Y-154000375D01*
X170269657Y-154029656D01*
X170152815Y-154172028D01*
X170072941Y-154321463D01*
X170065994Y-154334460D01*
X170012529Y-154510709D01*
X169994476Y-154694000D01*
X169999001Y-154739942D01*
X169999001Y-156444711D01*
X168672480Y-155118191D01*
X168656024Y-154951105D01*
X168596841Y-154756007D01*
X168500734Y-154576203D01*
X168371396Y-154418604D01*
X168213797Y-154289266D01*
X168033993Y-154193159D01*
X167838895Y-154133976D01*
X167686838Y-154119000D01*
X167085162Y-154119000D01*
X166933105Y-154133976D01*
X166738007Y-154193159D01*
X166558203Y-154289266D01*
X166400604Y-154418604D01*
X166271266Y-154576203D01*
X166175159Y-154756007D01*
X166115976Y-154951105D01*
X166095993Y-155154000D01*
X166115976Y-155356895D01*
X166175159Y-155551993D01*
X166271266Y-155731797D01*
X166400604Y-155889396D01*
X166558203Y-156018734D01*
X166738007Y-156114841D01*
X166933105Y-156174024D01*
X167085162Y-156189000D01*
X167098711Y-156189000D01*
X167454711Y-156545000D01*
X166035289Y-156545000D01*
X164608480Y-155118191D01*
X164592024Y-154951105D01*
X164532841Y-154756007D01*
X164436734Y-154576203D01*
X164307396Y-154418604D01*
X164149797Y-154289266D01*
X163969993Y-154193159D01*
X163774895Y-154133976D01*
X163622838Y-154119000D01*
X163021162Y-154119000D01*
X162869105Y-154133976D01*
X162674007Y-154193159D01*
X162494203Y-154289266D01*
X162336604Y-154418604D01*
X162207266Y-154576203D01*
X162111159Y-154756007D01*
X162051976Y-154951105D01*
X162031993Y-155154000D01*
X162051976Y-155356895D01*
X162111159Y-155551993D01*
X162207266Y-155731797D01*
X162336604Y-155889396D01*
X162494203Y-156018734D01*
X162674007Y-156114841D01*
X162869105Y-156174024D01*
X163021162Y-156189000D01*
X163034711Y-156189000D01*
X164763711Y-157918000D01*
X163344289Y-157918000D01*
X160544480Y-155118191D01*
X160528024Y-154951105D01*
X160468841Y-154756007D01*
X160372734Y-154576203D01*
X160243396Y-154418604D01*
X160085797Y-154289266D01*
X159905993Y-154193159D01*
X159710895Y-154133976D01*
X159558838Y-154119000D01*
X158957162Y-154119000D01*
X158805105Y-154133976D01*
X158610007Y-154193159D01*
X158430203Y-154289266D01*
X158272604Y-154418604D01*
X158160000Y-154555813D01*
X158160000Y-153379108D01*
X158215394Y-153446606D01*
X158342392Y-153550831D01*
X158487284Y-153628278D01*
X158644500Y-153675969D01*
X158808000Y-153692072D01*
X159708000Y-153692072D01*
X159871500Y-153675969D01*
X160028716Y-153628278D01*
X160173608Y-153550831D01*
X160300606Y-153446606D01*
X160404831Y-153319608D01*
X160482278Y-153174716D01*
X160529969Y-153017500D01*
X160546072Y-152854000D01*
X160546072Y-152454000D01*
X162033928Y-152454000D01*
X162033928Y-152854000D01*
X162050031Y-153017500D01*
X162097722Y-153174716D01*
X162175169Y-153319608D01*
X162279394Y-153446606D01*
X162406392Y-153550831D01*
X162551284Y-153628278D01*
X162708500Y-153675969D01*
X162872000Y-153692072D01*
X163772000Y-153692072D01*
X163935500Y-153675969D01*
X164092716Y-153628278D01*
X164237608Y-153550831D01*
X164364606Y-153446606D01*
X164468831Y-153319608D01*
X164546278Y-153174716D01*
X164593969Y-153017500D01*
X164610072Y-152854000D01*
X164610072Y-152454000D01*
X166097928Y-152454000D01*
X166097928Y-152854000D01*
X166114031Y-153017500D01*
X166161722Y-153174716D01*
X166239169Y-153319608D01*
X166343394Y-153446606D01*
X166470392Y-153550831D01*
X166615284Y-153628278D01*
X166772500Y-153675969D01*
X166936000Y-153692072D01*
X167836000Y-153692072D01*
X167999500Y-153675969D01*
X168156716Y-153628278D01*
X168301608Y-153550831D01*
X168428606Y-153446606D01*
X168532831Y-153319608D01*
X168610278Y-153174716D01*
X168657969Y-153017500D01*
X168674072Y-152854000D01*
X168674072Y-152454000D01*
X168657969Y-152290500D01*
X168610278Y-152133284D01*
X168532831Y-151988392D01*
X168428606Y-151861394D01*
X168301608Y-151757169D01*
X168156716Y-151679722D01*
X167999500Y-151632031D01*
X167836000Y-151615928D01*
X166936000Y-151615928D01*
X166772500Y-151632031D01*
X166615284Y-151679722D01*
X166470392Y-151757169D01*
X166343394Y-151861394D01*
X166239169Y-151988392D01*
X166161722Y-152133284D01*
X166114031Y-152290500D01*
X166097928Y-152454000D01*
X164610072Y-152454000D01*
X164593969Y-152290500D01*
X164546278Y-152133284D01*
X164468831Y-151988392D01*
X164364606Y-151861394D01*
X164237608Y-151757169D01*
X164092716Y-151679722D01*
X163935500Y-151632031D01*
X163772000Y-151615928D01*
X162872000Y-151615928D01*
X162708500Y-151632031D01*
X162551284Y-151679722D01*
X162406392Y-151757169D01*
X162279394Y-151861394D01*
X162175169Y-151988392D01*
X162097722Y-152133284D01*
X162050031Y-152290500D01*
X162033928Y-152454000D01*
X160546072Y-152454000D01*
X160529969Y-152290500D01*
X160482278Y-152133284D01*
X160404831Y-151988392D01*
X160300606Y-151861394D01*
X160173608Y-151757169D01*
X160028716Y-151679722D01*
X159871500Y-151632031D01*
X159708000Y-151615928D01*
X158808000Y-151615928D01*
X158644500Y-151632031D01*
X158487284Y-151679722D01*
X158342392Y-151757169D01*
X158215394Y-151861394D01*
X158160000Y-151928892D01*
X158160000Y-146316000D01*
X171358928Y-146316000D01*
X171358928Y-147816000D01*
X171375992Y-147989254D01*
X171426528Y-148155850D01*
X171508595Y-148309386D01*
X171619038Y-148443962D01*
X171753614Y-148554405D01*
X171907150Y-148636472D01*
X172073746Y-148687008D01*
X172247000Y-148704072D01*
X173447000Y-148704072D01*
X173620254Y-148687008D01*
X173786850Y-148636472D01*
X173940386Y-148554405D01*
X174074962Y-148443962D01*
X174185405Y-148309386D01*
X174267472Y-148155850D01*
X174318008Y-147989254D01*
X174335072Y-147816000D01*
X174335072Y-146316000D01*
X174318008Y-146142746D01*
X174267472Y-145976150D01*
X174185405Y-145822614D01*
X174074962Y-145688038D01*
X173940386Y-145577595D01*
X173786850Y-145495528D01*
X173620254Y-145444992D01*
X173447000Y-145427928D01*
X172247000Y-145427928D01*
X172073746Y-145444992D01*
X171907150Y-145495528D01*
X171753614Y-145577595D01*
X171619038Y-145688038D01*
X171508595Y-145822614D01*
X171426528Y-145976150D01*
X171375992Y-146142746D01*
X171358928Y-146316000D01*
X158160000Y-146316000D01*
X158160000Y-143269139D01*
X158263962Y-143424729D01*
X158575271Y-143736038D01*
X158941331Y-143980631D01*
X159348075Y-144149110D01*
X159779872Y-144235000D01*
X160220128Y-144235000D01*
X160651925Y-144149110D01*
X161058669Y-143980631D01*
X161424729Y-143736038D01*
X161736038Y-143424729D01*
X161980631Y-143058669D01*
X162149110Y-142651925D01*
X162235000Y-142220128D01*
X162235000Y-141779872D01*
X162149110Y-141348075D01*
X161980631Y-140941331D01*
X161736038Y-140575271D01*
X161424729Y-140263962D01*
X161269139Y-140160000D01*
X178730861Y-140160000D01*
X178575271Y-140263962D01*
%TA.AperFunction,Conductor*%
D17*
G36*
X178575271Y-140263962D02*
G01*
X178263962Y-140575271D01*
X178019369Y-140941331D01*
X177850890Y-141348075D01*
X177765000Y-141779872D01*
X177765000Y-142220128D01*
X177850890Y-142651925D01*
X178019369Y-143058669D01*
X178263962Y-143424729D01*
X178575271Y-143736038D01*
X178941331Y-143980631D01*
X179348075Y-144149110D01*
X179779872Y-144235000D01*
X180220128Y-144235000D01*
X180651925Y-144149110D01*
X181058669Y-143980631D01*
X181424729Y-143736038D01*
X181736038Y-143424729D01*
X181840000Y-143269138D01*
X181840001Y-160730863D01*
X181736038Y-160575271D01*
X181424729Y-160263962D01*
X181058669Y-160019369D01*
X180651925Y-159850890D01*
X180220128Y-159765000D01*
X179779872Y-159765000D01*
X179348075Y-159850890D01*
X178941331Y-160019369D01*
X178575271Y-160263962D01*
X178263962Y-160575271D01*
X178019369Y-160941331D01*
X177850890Y-161348075D01*
X177765000Y-161779872D01*
X177765000Y-162220128D01*
X177850890Y-162651925D01*
X178019369Y-163058669D01*
X178263962Y-163424729D01*
X178575271Y-163736038D01*
X178730861Y-163840000D01*
X174772717Y-163840000D01*
X174806472Y-163776850D01*
X174857008Y-163610254D01*
X174874072Y-163437000D01*
X174874072Y-163414133D01*
X174990623Y-163449488D01*
X175159000Y-163466072D01*
X175609000Y-163466072D01*
X175777377Y-163449488D01*
X175939283Y-163400375D01*
X176088497Y-163320618D01*
X176219284Y-163213284D01*
X176326618Y-163082497D01*
X176406375Y-162933283D01*
X176455488Y-162771377D01*
X176472072Y-162603000D01*
X176472072Y-161353000D01*
X176455488Y-161184623D01*
X176406375Y-161022717D01*
X176326618Y-160873503D01*
X176219284Y-160742716D01*
X176088497Y-160635382D01*
X175939283Y-160555625D01*
X175777377Y-160506512D01*
X175609000Y-160489928D01*
X175159000Y-160489928D01*
X174990623Y-160506512D01*
X174828717Y-160555625D01*
X174679503Y-160635382D01*
X174548716Y-160742716D01*
X174441382Y-160873503D01*
X174361625Y-161022717D01*
X174332147Y-161119894D01*
X174325850Y-161116528D01*
X174159254Y-161065992D01*
X173986000Y-161048928D01*
X173900601Y-161048928D01*
X172967745Y-160116072D01*
X173084000Y-160116072D01*
X173237745Y-160100929D01*
X173385582Y-160056084D01*
X173434000Y-160030204D01*
X173482418Y-160056084D01*
X173630255Y-160100929D01*
X173784000Y-160116072D01*
X174084000Y-160116072D01*
X174237745Y-160100929D01*
X174385582Y-160056084D01*
X174521829Y-159983258D01*
X174641251Y-159885251D01*
X174721063Y-159788000D01*
X176538458Y-159788000D01*
X176547744Y-159794205D01*
X176736102Y-159872226D01*
X176936061Y-159912000D01*
X177139939Y-159912000D01*
X177339898Y-159872226D01*
X177528256Y-159794205D01*
X177697774Y-159680937D01*
X177841937Y-159536774D01*
X177926215Y-159410643D01*
X177980150Y-159439472D01*
X178146746Y-159490008D01*
X178320000Y-159507072D01*
X179820000Y-159507072D01*
X179993254Y-159490008D01*
X180159850Y-159439472D01*
X180313386Y-159357405D01*
X180447962Y-159246962D01*
X180558405Y-159112386D01*
X180640472Y-158958850D01*
X180691008Y-158792254D01*
X180708072Y-158619000D01*
X180708072Y-158119000D01*
X180691008Y-157945746D01*
X180640472Y-157779150D01*
X180558405Y-157625614D01*
X180447962Y-157491038D01*
X180313386Y-157380595D01*
X180159850Y-157298528D01*
X179993254Y-157247992D01*
X179820000Y-157230928D01*
X179254217Y-157230928D01*
X179213361Y-157190072D01*
X179412000Y-157190072D01*
X179536482Y-157177812D01*
X179656180Y-157141502D01*
X179766494Y-157082537D01*
X179863185Y-157003185D01*
X179942537Y-156906494D01*
X180001502Y-156796180D01*
X180037812Y-156676482D01*
X180050072Y-156552000D01*
X180050072Y-154852000D01*
X180037812Y-154727518D01*
X180001502Y-154607820D01*
X179942537Y-154497506D01*
X179863185Y-154400815D01*
X179766494Y-154321463D01*
X179656180Y-154262498D01*
X179536482Y-154226188D01*
X179412000Y-154213928D01*
X177712000Y-154213928D01*
X177587518Y-154226188D01*
X177467820Y-154262498D01*
X177357506Y-154321463D01*
X177260815Y-154400815D01*
X177181463Y-154497506D01*
X177122498Y-154607820D01*
X177086188Y-154727518D01*
X177073928Y-154852000D01*
X177073928Y-156552000D01*
X177086188Y-156676482D01*
X177121530Y-156792990D01*
X174491117Y-156792990D01*
X174635475Y-156648632D01*
X174797990Y-156405411D01*
X174909932Y-156135158D01*
X174967000Y-155848260D01*
X174967000Y-155555740D01*
X174909932Y-155268842D01*
X174797990Y-154998589D01*
X174635475Y-154755368D01*
X174428632Y-154548525D01*
X174185411Y-154386010D01*
X173915158Y-154274068D01*
X173628260Y-154217000D01*
X173335740Y-154217000D01*
X173048842Y-154274068D01*
X172778589Y-154386010D01*
X172535368Y-154548525D01*
X172328525Y-154755368D01*
X172166010Y-154998589D01*
X172054068Y-155268842D01*
X171997000Y-155555740D01*
X171997000Y-155848260D01*
X171999729Y-155861982D01*
X171869000Y-155992711D01*
X171869000Y-155081289D01*
X173322019Y-153628271D01*
X173335740Y-153631000D01*
X173628260Y-153631000D01*
X173915158Y-153573932D01*
X174185411Y-153461990D01*
X174428632Y-153299475D01*
X174635475Y-153092632D01*
X174797990Y-152849411D01*
X174909932Y-152579158D01*
X174967000Y-152292260D01*
X174967000Y-151999740D01*
X174909932Y-151712842D01*
X174797990Y-151442589D01*
X174700043Y-151296000D01*
X177073928Y-151296000D01*
X177073928Y-152996000D01*
X177086188Y-153120482D01*
X177122498Y-153240180D01*
X177181463Y-153350494D01*
X177260815Y-153447185D01*
X177357506Y-153526537D01*
X177467820Y-153585502D01*
X177587518Y-153621812D01*
X177712000Y-153634072D01*
X179412000Y-153634072D01*
X179536482Y-153621812D01*
X179656180Y-153585502D01*
X179766494Y-153526537D01*
X179863185Y-153447185D01*
X179942537Y-153350494D01*
X180001502Y-153240180D01*
X180037812Y-153120482D01*
X180050072Y-152996000D01*
X180050072Y-151296000D01*
X180037812Y-151171518D01*
X180001502Y-151051820D01*
X179942537Y-150941506D01*
X179863185Y-150844815D01*
X179766494Y-150765463D01*
X179656180Y-150706498D01*
X179536482Y-150670188D01*
X179412000Y-150657928D01*
X177712000Y-150657928D01*
X177587518Y-150670188D01*
X177467820Y-150706498D01*
X177357506Y-150765463D01*
X177260815Y-150844815D01*
X177181463Y-150941506D01*
X177122498Y-151051820D01*
X177086188Y-151171518D01*
X177073928Y-151296000D01*
X174700043Y-151296000D01*
X174635475Y-151199368D01*
X174428632Y-150992525D01*
X174185411Y-150830010D01*
X173915158Y-150718068D01*
X173628260Y-150661000D01*
X173335740Y-150661000D01*
X173048842Y-150718068D01*
X172778589Y-150830010D01*
X172535368Y-150992525D01*
X172328525Y-151199368D01*
X172166010Y-151442589D01*
X172054068Y-151712842D01*
X171997000Y-151999740D01*
X171997000Y-152292260D01*
X171999729Y-152305981D01*
X170305336Y-154000375D01*
X170269657Y-154029656D01*
X170152815Y-154172028D01*
X170072941Y-154321463D01*
X170065994Y-154334460D01*
X170012529Y-154510709D01*
X169994476Y-154694000D01*
X169999001Y-154739942D01*
X169999001Y-156444711D01*
X168672480Y-155118191D01*
X168656024Y-154951105D01*
X168596841Y-154756007D01*
X168500734Y-154576203D01*
X168371396Y-154418604D01*
X168213797Y-154289266D01*
X168033993Y-154193159D01*
X167838895Y-154133976D01*
X167686838Y-154119000D01*
X167085162Y-154119000D01*
X166933105Y-154133976D01*
X166738007Y-154193159D01*
X166558203Y-154289266D01*
X166400604Y-154418604D01*
X166271266Y-154576203D01*
X166175159Y-154756007D01*
X166115976Y-154951105D01*
X166095993Y-155154000D01*
X166115976Y-155356895D01*
X166175159Y-155551993D01*
X166271266Y-155731797D01*
X166400604Y-155889396D01*
X166558203Y-156018734D01*
X166738007Y-156114841D01*
X166933105Y-156174024D01*
X167085162Y-156189000D01*
X167098711Y-156189000D01*
X167454711Y-156545000D01*
X166035289Y-156545000D01*
X164608480Y-155118191D01*
X164592024Y-154951105D01*
X164532841Y-154756007D01*
X164436734Y-154576203D01*
X164307396Y-154418604D01*
X164149797Y-154289266D01*
X163969993Y-154193159D01*
X163774895Y-154133976D01*
X163622838Y-154119000D01*
X163021162Y-154119000D01*
X162869105Y-154133976D01*
X162674007Y-154193159D01*
X162494203Y-154289266D01*
X162336604Y-154418604D01*
X162207266Y-154576203D01*
X162111159Y-154756007D01*
X162051976Y-154951105D01*
X162031993Y-155154000D01*
X162051976Y-155356895D01*
X162111159Y-155551993D01*
X162207266Y-155731797D01*
X162336604Y-155889396D01*
X162494203Y-156018734D01*
X162674007Y-156114841D01*
X162869105Y-156174024D01*
X163021162Y-156189000D01*
X163034711Y-156189000D01*
X164763711Y-157918000D01*
X163344289Y-157918000D01*
X160544480Y-155118191D01*
X160528024Y-154951105D01*
X160468841Y-154756007D01*
X160372734Y-154576203D01*
X160243396Y-154418604D01*
X160085797Y-154289266D01*
X159905993Y-154193159D01*
X159710895Y-154133976D01*
X159558838Y-154119000D01*
X158957162Y-154119000D01*
X158805105Y-154133976D01*
X158610007Y-154193159D01*
X158430203Y-154289266D01*
X158272604Y-154418604D01*
X158160000Y-154555813D01*
X158160000Y-153379108D01*
X158215394Y-153446606D01*
X158342392Y-153550831D01*
X158487284Y-153628278D01*
X158644500Y-153675969D01*
X158808000Y-153692072D01*
X159708000Y-153692072D01*
X159871500Y-153675969D01*
X160028716Y-153628278D01*
X160173608Y-153550831D01*
X160300606Y-153446606D01*
X160404831Y-153319608D01*
X160482278Y-153174716D01*
X160529969Y-153017500D01*
X160546072Y-152854000D01*
X160546072Y-152454000D01*
X162033928Y-152454000D01*
X162033928Y-152854000D01*
X162050031Y-153017500D01*
X162097722Y-153174716D01*
X162175169Y-153319608D01*
X162279394Y-153446606D01*
X162406392Y-153550831D01*
X162551284Y-153628278D01*
X162708500Y-153675969D01*
X162872000Y-153692072D01*
X163772000Y-153692072D01*
X163935500Y-153675969D01*
X164092716Y-153628278D01*
X164237608Y-153550831D01*
X164364606Y-153446606D01*
X164468831Y-153319608D01*
X164546278Y-153174716D01*
X164593969Y-153017500D01*
X164610072Y-152854000D01*
X164610072Y-152454000D01*
X166097928Y-152454000D01*
X166097928Y-152854000D01*
X166114031Y-153017500D01*
X166161722Y-153174716D01*
X166239169Y-153319608D01*
X166343394Y-153446606D01*
X166470392Y-153550831D01*
X166615284Y-153628278D01*
X166772500Y-153675969D01*
X166936000Y-153692072D01*
X167836000Y-153692072D01*
X167999500Y-153675969D01*
X168156716Y-153628278D01*
X168301608Y-153550831D01*
X168428606Y-153446606D01*
X168532831Y-153319608D01*
X168610278Y-153174716D01*
X168657969Y-153017500D01*
X168674072Y-152854000D01*
X168674072Y-152454000D01*
X168657969Y-152290500D01*
X168610278Y-152133284D01*
X168532831Y-151988392D01*
X168428606Y-151861394D01*
X168301608Y-151757169D01*
X168156716Y-151679722D01*
X167999500Y-151632031D01*
X167836000Y-151615928D01*
X166936000Y-151615928D01*
X166772500Y-151632031D01*
X166615284Y-151679722D01*
X166470392Y-151757169D01*
X166343394Y-151861394D01*
X166239169Y-151988392D01*
X166161722Y-152133284D01*
X166114031Y-152290500D01*
X166097928Y-152454000D01*
X164610072Y-152454000D01*
X164593969Y-152290500D01*
X164546278Y-152133284D01*
X164468831Y-151988392D01*
X164364606Y-151861394D01*
X164237608Y-151757169D01*
X164092716Y-151679722D01*
X163935500Y-151632031D01*
X163772000Y-151615928D01*
X162872000Y-151615928D01*
X162708500Y-151632031D01*
X162551284Y-151679722D01*
X162406392Y-151757169D01*
X162279394Y-151861394D01*
X162175169Y-151988392D01*
X162097722Y-152133284D01*
X162050031Y-152290500D01*
X162033928Y-152454000D01*
X160546072Y-152454000D01*
X160529969Y-152290500D01*
X160482278Y-152133284D01*
X160404831Y-151988392D01*
X160300606Y-151861394D01*
X160173608Y-151757169D01*
X160028716Y-151679722D01*
X159871500Y-151632031D01*
X159708000Y-151615928D01*
X158808000Y-151615928D01*
X158644500Y-151632031D01*
X158487284Y-151679722D01*
X158342392Y-151757169D01*
X158215394Y-151861394D01*
X158160000Y-151928892D01*
X158160000Y-146316000D01*
X171358928Y-146316000D01*
X171358928Y-147816000D01*
X171375992Y-147989254D01*
X171426528Y-148155850D01*
X171508595Y-148309386D01*
X171619038Y-148443962D01*
X171753614Y-148554405D01*
X171907150Y-148636472D01*
X172073746Y-148687008D01*
X172247000Y-148704072D01*
X173447000Y-148704072D01*
X173620254Y-148687008D01*
X173786850Y-148636472D01*
X173940386Y-148554405D01*
X174074962Y-148443962D01*
X174185405Y-148309386D01*
X174267472Y-148155850D01*
X174318008Y-147989254D01*
X174335072Y-147816000D01*
X174335072Y-146316000D01*
X174318008Y-146142746D01*
X174267472Y-145976150D01*
X174185405Y-145822614D01*
X174074962Y-145688038D01*
X173940386Y-145577595D01*
X173786850Y-145495528D01*
X173620254Y-145444992D01*
X173447000Y-145427928D01*
X172247000Y-145427928D01*
X172073746Y-145444992D01*
X171907150Y-145495528D01*
X171753614Y-145577595D01*
X171619038Y-145688038D01*
X171508595Y-145822614D01*
X171426528Y-145976150D01*
X171375992Y-146142746D01*
X171358928Y-146316000D01*
X158160000Y-146316000D01*
X158160000Y-143269139D01*
X158263962Y-143424729D01*
X158575271Y-143736038D01*
X158941331Y-143980631D01*
X159348075Y-144149110D01*
X159779872Y-144235000D01*
X160220128Y-144235000D01*
X160651925Y-144149110D01*
X161058669Y-143980631D01*
X161424729Y-143736038D01*
X161736038Y-143424729D01*
X161980631Y-143058669D01*
X162149110Y-142651925D01*
X162235000Y-142220128D01*
X162235000Y-141779872D01*
X162149110Y-141348075D01*
X161980631Y-140941331D01*
X161736038Y-140575271D01*
X161424729Y-140263962D01*
X161269139Y-140160000D01*
X178730861Y-140160000D01*
X178575271Y-140263962D01*
G37*
%TD.AperFunction*%
%TD*%
M02*
