%TF.GenerationSoftware,KiCad,Pcbnew,(5.1.9)-1*%
%TF.CreationDate,2021-08-13T14:48:15+01:00*%
%TF.ProjectId,5-servos,352d7365-7276-46f7-932e-6b696361645f,rev?*%
%TF.SameCoordinates,Original*%
%TF.FileFunction,Copper,L1,Top*%
%TF.FilePolarity,Positive*%
%FSLAX46Y46*%
G04 Gerber Fmt 4.6, Leading zero omitted, Abs format (unit mm)*
G04 Created by KiCad (PCBNEW (5.1.9)-1) date 2021-08-13 14:48:15*
%MOMM*%
%LPD*%
G01*
G04 APERTURE LIST*
%TA.AperFunction,ComponentPad*%
%ADD10O,1.700000X1.700000*%
%TD*%
%TA.AperFunction,ComponentPad*%
%ADD11R,1.700000X1.700000*%
%TD*%
%TA.AperFunction,ComponentPad*%
%ADD12O,1.700000X2.000000*%
%TD*%
%TA.AperFunction,ViaPad*%
%ADD13C,0.800000*%
%TD*%
%TA.AperFunction,Conductor*%
%ADD14C,0.600000*%
%TD*%
%TA.AperFunction,Conductor*%
%ADD15C,0.254000*%
%TD*%
%TA.AperFunction,Conductor*%
%ADD16C,0.100000*%
%TD*%
G04 APERTURE END LIST*
%TO.P,J13,1*%
%TO.N,Net-(J1-Pad7)*%
%TA.AperFunction,SMDPad,CuDef*%
G36*
G01*
X179820000Y-158869000D02*
X178320000Y-158869000D01*
G75*
G02*
X178070000Y-158619000I0J250000D01*
G01*
X178070000Y-158119000D01*
G75*
G02*
X178320000Y-157869000I250000J0D01*
G01*
X179820000Y-157869000D01*
G75*
G02*
X180070000Y-158119000I0J-250000D01*
G01*
X180070000Y-158619000D01*
G75*
G02*
X179820000Y-158869000I-250000J0D01*
G01*
G37*
%TD.AperFunction*%
%TD*%
%TO.P,J1,MP*%
%TO.N,N/C*%
%TA.AperFunction,SMDPad,CuDef*%
G36*
G01*
X174945800Y-162400800D02*
X174945800Y-161550800D01*
G75*
G02*
X175370800Y-161125800I425000J0D01*
G01*
X176520800Y-161125800D01*
G75*
G02*
X176945800Y-161550800I0J-425000D01*
G01*
X176945800Y-162400800D01*
G75*
G02*
X176520800Y-162825800I-425000J0D01*
G01*
X175370800Y-162825800D01*
G75*
G02*
X174945800Y-162400800I0J425000D01*
G01*
G37*
%TD.AperFunction*%
%TA.AperFunction,SMDPad,CuDef*%
G36*
G01*
X163922200Y-162400800D02*
X163922200Y-161550800D01*
G75*
G02*
X164347200Y-161125800I425000J0D01*
G01*
X165497200Y-161125800D01*
G75*
G02*
X165922200Y-161550800I0J-425000D01*
G01*
X165922200Y-162400800D01*
G75*
G02*
X165497200Y-162825800I-425000J0D01*
G01*
X164347200Y-162825800D01*
G75*
G02*
X163922200Y-162400800I0J425000D01*
G01*
G37*
%TD.AperFunction*%
%TO.P,J1,1*%
%TO.N,Net-(J1-Pad1)*%
%TA.AperFunction,SMDPad,CuDef*%
G36*
G01*
X166634000Y-159328000D02*
X166634000Y-158378000D01*
G75*
G02*
X166784000Y-158228000I150000J0D01*
G01*
X167084000Y-158228000D01*
G75*
G02*
X167234000Y-158378000I0J-150000D01*
G01*
X167234000Y-159328000D01*
G75*
G02*
X167084000Y-159478000I-150000J0D01*
G01*
X166784000Y-159478000D01*
G75*
G02*
X166634000Y-159328000I0J150000D01*
G01*
G37*
%TD.AperFunction*%
%TO.P,J1,2*%
%TO.N,N/C*%
%TA.AperFunction,SMDPad,CuDef*%
G36*
G01*
X167634000Y-159328000D02*
X167634000Y-158378000D01*
G75*
G02*
X167784000Y-158228000I150000J0D01*
G01*
X168084000Y-158228000D01*
G75*
G02*
X168234000Y-158378000I0J-150000D01*
G01*
X168234000Y-159328000D01*
G75*
G02*
X168084000Y-159478000I-150000J0D01*
G01*
X167784000Y-159478000D01*
G75*
G02*
X167634000Y-159328000I0J150000D01*
G01*
G37*
%TD.AperFunction*%
%TO.P,J1,3*%
%TO.N,Net-(J1-Pad3)*%
%TA.AperFunction,SMDPad,CuDef*%
G36*
G01*
X168634000Y-159328000D02*
X168634000Y-158378000D01*
G75*
G02*
X168784000Y-158228000I150000J0D01*
G01*
X169084000Y-158228000D01*
G75*
G02*
X169234000Y-158378000I0J-150000D01*
G01*
X169234000Y-159328000D01*
G75*
G02*
X169084000Y-159478000I-150000J0D01*
G01*
X168784000Y-159478000D01*
G75*
G02*
X168634000Y-159328000I0J150000D01*
G01*
G37*
%TD.AperFunction*%
%TO.P,J1,4*%
%TO.N,Net-(J1-Pad4)*%
%TA.AperFunction,SMDPad,CuDef*%
G36*
G01*
X169634000Y-159328000D02*
X169634000Y-158378000D01*
G75*
G02*
X169784000Y-158228000I150000J0D01*
G01*
X170084000Y-158228000D01*
G75*
G02*
X170234000Y-158378000I0J-150000D01*
G01*
X170234000Y-159328000D01*
G75*
G02*
X170084000Y-159478000I-150000J0D01*
G01*
X169784000Y-159478000D01*
G75*
G02*
X169634000Y-159328000I0J150000D01*
G01*
G37*
%TD.AperFunction*%
%TO.P,J1,5*%
%TO.N,Net-(J1-Pad5)*%
%TA.AperFunction,SMDPad,CuDef*%
G36*
G01*
X170634000Y-159328000D02*
X170634000Y-158378000D01*
G75*
G02*
X170784000Y-158228000I150000J0D01*
G01*
X171084000Y-158228000D01*
G75*
G02*
X171234000Y-158378000I0J-150000D01*
G01*
X171234000Y-159328000D01*
G75*
G02*
X171084000Y-159478000I-150000J0D01*
G01*
X170784000Y-159478000D01*
G75*
G02*
X170634000Y-159328000I0J150000D01*
G01*
G37*
%TD.AperFunction*%
%TO.P,J1,6*%
%TO.N,Net-(J1-Pad6)*%
%TA.AperFunction,SMDPad,CuDef*%
G36*
G01*
X171634000Y-159328000D02*
X171634000Y-158378000D01*
G75*
G02*
X171784000Y-158228000I150000J0D01*
G01*
X172084000Y-158228000D01*
G75*
G02*
X172234000Y-158378000I0J-150000D01*
G01*
X172234000Y-159328000D01*
G75*
G02*
X172084000Y-159478000I-150000J0D01*
G01*
X171784000Y-159478000D01*
G75*
G02*
X171634000Y-159328000I0J150000D01*
G01*
G37*
%TD.AperFunction*%
%TO.P,J1,7*%
%TO.N,Net-(J1-Pad7)*%
%TA.AperFunction,SMDPad,CuDef*%
G36*
G01*
X172634000Y-159328000D02*
X172634000Y-158378000D01*
G75*
G02*
X172784000Y-158228000I150000J0D01*
G01*
X173084000Y-158228000D01*
G75*
G02*
X173234000Y-158378000I0J-150000D01*
G01*
X173234000Y-159328000D01*
G75*
G02*
X173084000Y-159478000I-150000J0D01*
G01*
X172784000Y-159478000D01*
G75*
G02*
X172634000Y-159328000I0J150000D01*
G01*
G37*
%TD.AperFunction*%
%TO.P,J1,8*%
%TO.N,GND*%
%TA.AperFunction,SMDPad,CuDef*%
G36*
G01*
X173634000Y-159328000D02*
X173634000Y-158378000D01*
G75*
G02*
X173784000Y-158228000I150000J0D01*
G01*
X174084000Y-158228000D01*
G75*
G02*
X174234000Y-158378000I0J-150000D01*
G01*
X174234000Y-159328000D01*
G75*
G02*
X174084000Y-159478000I-150000J0D01*
G01*
X173784000Y-159478000D01*
G75*
G02*
X173634000Y-159328000I0J150000D01*
G01*
G37*
%TD.AperFunction*%
%TD*%
D10*
%TO.P,J10,3*%
%TO.N,Net-(J1-Pad1)*%
X159766000Y-155702000D03*
%TO.P,J10,2*%
%TO.N,+BATT*%
X159766000Y-153162000D03*
D11*
%TO.P,J10,1*%
%TO.N,GND*%
X159766000Y-150622000D03*
%TD*%
D10*
%TO.P,J5,3*%
%TO.N,Net-(J1-Pad3)*%
X163322000Y-155702000D03*
%TO.P,J5,2*%
%TO.N,+BATT*%
X163322000Y-153162000D03*
D11*
%TO.P,J5,1*%
%TO.N,GND*%
X163322000Y-150622000D03*
%TD*%
D10*
%TO.P,J4,3*%
%TO.N,Net-(J1-Pad4)*%
X166878000Y-155702000D03*
%TO.P,J4,2*%
%TO.N,+BATT*%
X166878000Y-153162000D03*
D11*
%TO.P,J4,1*%
%TO.N,GND*%
X166878000Y-150622000D03*
%TD*%
D10*
%TO.P,J3,3*%
%TO.N,Net-(J1-Pad5)*%
X173482000Y-152146000D03*
%TO.P,J3,2*%
%TO.N,+BATT*%
X176022000Y-152146000D03*
D11*
%TO.P,J3,1*%
%TO.N,GND*%
X178562000Y-152146000D03*
%TD*%
%TO.P,J12,1*%
%TO.N,Net-(J1-Pad1)*%
%TA.AperFunction,SMDPad,CuDef*%
G36*
G01*
X166632000Y-163437000D02*
X166632000Y-161937000D01*
G75*
G02*
X166882000Y-161687000I250000J0D01*
G01*
X167382000Y-161687000D01*
G75*
G02*
X167632000Y-161937000I0J-250000D01*
G01*
X167632000Y-163437000D01*
G75*
G02*
X167382000Y-163687000I-250000J0D01*
G01*
X166882000Y-163687000D01*
G75*
G02*
X166632000Y-163437000I0J250000D01*
G01*
G37*
%TD.AperFunction*%
%TD*%
%TO.P,J11,1*%
%TO.N,Net-(J1-Pad3)*%
%TA.AperFunction,SMDPad,CuDef*%
G36*
G01*
X168283000Y-163437000D02*
X168283000Y-161937000D01*
G75*
G02*
X168533000Y-161687000I250000J0D01*
G01*
X169033000Y-161687000D01*
G75*
G02*
X169283000Y-161937000I0J-250000D01*
G01*
X169283000Y-163437000D01*
G75*
G02*
X169033000Y-163687000I-250000J0D01*
G01*
X168533000Y-163687000D01*
G75*
G02*
X168283000Y-163437000I0J250000D01*
G01*
G37*
%TD.AperFunction*%
%TD*%
D10*
%TO.P,J2,3*%
%TO.N,Net-(J1-Pad6)*%
X173482000Y-155702000D03*
%TO.P,J2,2*%
%TO.N,+BATT*%
X176022000Y-155702000D03*
D11*
%TO.P,J2,1*%
%TO.N,GND*%
X178562000Y-155702000D03*
%TD*%
D12*
%TO.P,J6,2*%
%TO.N,+BATT*%
X172125000Y-147066000D03*
%TO.P,J6,1*%
%TO.N,GND*%
%TA.AperFunction,ComponentPad*%
G36*
G01*
X175475000Y-146316000D02*
X175475000Y-147816000D01*
G75*
G02*
X175225000Y-148066000I-250000J0D01*
G01*
X174025000Y-148066000D01*
G75*
G02*
X173775000Y-147816000I0J250000D01*
G01*
X173775000Y-146316000D01*
G75*
G02*
X174025000Y-146066000I250000J0D01*
G01*
X175225000Y-146066000D01*
G75*
G02*
X175475000Y-146316000I0J-250000D01*
G01*
G37*
%TD.AperFunction*%
%TD*%
%TO.P,J9,1*%
%TO.N,Net-(J1-Pad4)*%
%TA.AperFunction,SMDPad,CuDef*%
G36*
G01*
X169934000Y-163437000D02*
X169934000Y-161937000D01*
G75*
G02*
X170184000Y-161687000I250000J0D01*
G01*
X170684000Y-161687000D01*
G75*
G02*
X170934000Y-161937000I0J-250000D01*
G01*
X170934000Y-163437000D01*
G75*
G02*
X170684000Y-163687000I-250000J0D01*
G01*
X170184000Y-163687000D01*
G75*
G02*
X169934000Y-163437000I0J250000D01*
G01*
G37*
%TD.AperFunction*%
%TD*%
%TO.P,J8,1*%
%TO.N,Net-(J1-Pad5)*%
%TA.AperFunction,SMDPad,CuDef*%
G36*
G01*
X171585000Y-163437000D02*
X171585000Y-161937000D01*
G75*
G02*
X171835000Y-161687000I250000J0D01*
G01*
X172335000Y-161687000D01*
G75*
G02*
X172585000Y-161937000I0J-250000D01*
G01*
X172585000Y-163437000D01*
G75*
G02*
X172335000Y-163687000I-250000J0D01*
G01*
X171835000Y-163687000D01*
G75*
G02*
X171585000Y-163437000I0J250000D01*
G01*
G37*
%TD.AperFunction*%
%TD*%
%TO.P,J7,1*%
%TO.N,Net-(J1-Pad6)*%
%TA.AperFunction,SMDPad,CuDef*%
G36*
G01*
X173236000Y-163437000D02*
X173236000Y-161937000D01*
G75*
G02*
X173486000Y-161687000I250000J0D01*
G01*
X173986000Y-161687000D01*
G75*
G02*
X174236000Y-161937000I0J-250000D01*
G01*
X174236000Y-163437000D01*
G75*
G02*
X173986000Y-163687000I-250000J0D01*
G01*
X173486000Y-163687000D01*
G75*
G02*
X173236000Y-163437000I0J250000D01*
G01*
G37*
%TD.AperFunction*%
%TD*%
D13*
%TO.N,GND*%
X177038000Y-158877000D03*
%TD*%
D14*
%TO.N,Net-(J1-Pad3)*%
X168934000Y-162536000D02*
X168783000Y-162687000D01*
X168934000Y-158853000D02*
X168934000Y-162536000D01*
X164672001Y-157052001D02*
X163322000Y-155702000D01*
X167677257Y-157052001D02*
X164672001Y-157052001D01*
X168934000Y-158308744D02*
X167677257Y-157052001D01*
X168934000Y-158853000D02*
X168934000Y-158308744D01*
%TO.N,Net-(J1-Pad1)*%
X166934000Y-162489000D02*
X167132000Y-162687000D01*
X166934000Y-158853000D02*
X166934000Y-162489000D01*
X162917000Y-158853000D02*
X159766000Y-155702000D01*
X166934000Y-158853000D02*
X162917000Y-158853000D01*
%TO.N,GND*%
X177014000Y-158853000D02*
X177038000Y-158877000D01*
X173934000Y-158853000D02*
X177014000Y-158853000D01*
%TO.N,Net-(J1-Pad7)*%
X178428990Y-157727990D02*
X179070000Y-158369000D01*
X173434010Y-157727990D02*
X178428990Y-157727990D01*
X172934000Y-158228000D02*
X173434010Y-157727990D01*
X172934000Y-158853000D02*
X172934000Y-158228000D01*
%TO.N,Net-(J1-Pad6)*%
X173736000Y-162206616D02*
X173736000Y-162687000D01*
X171934000Y-160404616D02*
X173736000Y-162206616D01*
X171934000Y-158853000D02*
X171934000Y-160404616D01*
X171934000Y-157250000D02*
X173482000Y-155702000D01*
X171934000Y-158853000D02*
X171934000Y-157250000D01*
%TO.N,Net-(J1-Pad5)*%
X172085000Y-161687000D02*
X172085000Y-162687000D01*
X170934000Y-160536000D02*
X172085000Y-161687000D01*
X170934000Y-158853000D02*
X170934000Y-160536000D01*
X170934000Y-154694000D02*
X173482000Y-152146000D01*
X170934000Y-158853000D02*
X170934000Y-154694000D01*
%TO.N,Net-(J1-Pad4)*%
X169934000Y-162187000D02*
X170434000Y-162687000D01*
X169934000Y-158853000D02*
X169934000Y-162187000D01*
X167458640Y-155702000D02*
X166878000Y-155702000D01*
X169934000Y-158177360D02*
X167458640Y-155702000D01*
X169934000Y-158853000D02*
X169934000Y-158177360D01*
%TD*%
D15*
%TO.N,+BATT*%
X178026458Y-140945120D02*
X177858582Y-141350408D01*
X177773000Y-141780660D01*
X177773000Y-142219340D01*
X177858582Y-142649592D01*
X178026458Y-143054880D01*
X178270176Y-143419630D01*
X178580370Y-143729824D01*
X178945120Y-143973542D01*
X179350408Y-144141418D01*
X179780660Y-144227000D01*
X180219340Y-144227000D01*
X180649592Y-144141418D01*
X181054880Y-143973542D01*
X181340000Y-143783031D01*
X181340001Y-160216970D01*
X181054880Y-160026458D01*
X180649592Y-159858582D01*
X180219340Y-159773000D01*
X179780660Y-159773000D01*
X179350408Y-159858582D01*
X178945120Y-160026458D01*
X178580370Y-160270176D01*
X178270176Y-160580370D01*
X178026458Y-160945120D01*
X177858582Y-161350408D01*
X177773000Y-161780660D01*
X177773000Y-162219340D01*
X177858582Y-162649592D01*
X178026458Y-163054880D01*
X178216969Y-163340000D01*
X177007974Y-163340000D01*
X177111411Y-163284712D01*
X177272505Y-163152505D01*
X177404712Y-162991411D01*
X177502950Y-162807620D01*
X177563445Y-162608195D01*
X177583872Y-162400800D01*
X177583872Y-161550800D01*
X177563445Y-161343405D01*
X177502950Y-161143980D01*
X177404712Y-160960189D01*
X177272505Y-160799095D01*
X177111411Y-160666888D01*
X176927620Y-160568650D01*
X176728195Y-160508155D01*
X176520800Y-160487728D01*
X175370800Y-160487728D01*
X175163405Y-160508155D01*
X174963980Y-160568650D01*
X174780189Y-160666888D01*
X174619095Y-160799095D01*
X174486888Y-160960189D01*
X174388650Y-161143980D01*
X174387054Y-161149242D01*
X174325850Y-161116528D01*
X174159254Y-161065992D01*
X173986000Y-161048928D01*
X173900601Y-161048928D01*
X172967745Y-160116072D01*
X173084000Y-160116072D01*
X173237745Y-160100929D01*
X173385582Y-160056084D01*
X173434000Y-160030204D01*
X173482418Y-160056084D01*
X173630255Y-160100929D01*
X173784000Y-160116072D01*
X174084000Y-160116072D01*
X174237745Y-160100929D01*
X174385582Y-160056084D01*
X174521829Y-159983258D01*
X174641251Y-159885251D01*
X174721063Y-159788000D01*
X176538458Y-159788000D01*
X176547744Y-159794205D01*
X176736102Y-159872226D01*
X176936061Y-159912000D01*
X177139939Y-159912000D01*
X177339898Y-159872226D01*
X177528256Y-159794205D01*
X177697774Y-159680937D01*
X177841937Y-159536774D01*
X177926215Y-159410643D01*
X177980150Y-159439472D01*
X178146746Y-159490008D01*
X178320000Y-159507072D01*
X179820000Y-159507072D01*
X179993254Y-159490008D01*
X180159850Y-159439472D01*
X180313386Y-159357405D01*
X180447962Y-159246962D01*
X180558405Y-159112386D01*
X180640472Y-158958850D01*
X180691008Y-158792254D01*
X180708072Y-158619000D01*
X180708072Y-158119000D01*
X180691008Y-157945746D01*
X180640472Y-157779150D01*
X180558405Y-157625614D01*
X180447962Y-157491038D01*
X180313386Y-157380595D01*
X180159850Y-157298528D01*
X179993254Y-157247992D01*
X179820000Y-157230928D01*
X179254217Y-157230928D01*
X179213361Y-157190072D01*
X179412000Y-157190072D01*
X179536482Y-157177812D01*
X179656180Y-157141502D01*
X179766494Y-157082537D01*
X179863185Y-157003185D01*
X179942537Y-156906494D01*
X180001502Y-156796180D01*
X180037812Y-156676482D01*
X180050072Y-156552000D01*
X180050072Y-154852000D01*
X180037812Y-154727518D01*
X180001502Y-154607820D01*
X179942537Y-154497506D01*
X179863185Y-154400815D01*
X179766494Y-154321463D01*
X179656180Y-154262498D01*
X179536482Y-154226188D01*
X179412000Y-154213928D01*
X177712000Y-154213928D01*
X177587518Y-154226188D01*
X177467820Y-154262498D01*
X177357506Y-154321463D01*
X177260815Y-154400815D01*
X177181463Y-154497506D01*
X177122498Y-154607820D01*
X177086188Y-154727518D01*
X177073928Y-154852000D01*
X177073928Y-156552000D01*
X177086188Y-156676482D01*
X177121530Y-156792990D01*
X174491117Y-156792990D01*
X174635475Y-156648632D01*
X174797990Y-156405411D01*
X174909932Y-156135158D01*
X174967000Y-155848260D01*
X174967000Y-155555740D01*
X174909932Y-155268842D01*
X174797990Y-154998589D01*
X174635475Y-154755368D01*
X174428632Y-154548525D01*
X174185411Y-154386010D01*
X173915158Y-154274068D01*
X173628260Y-154217000D01*
X173335740Y-154217000D01*
X173048842Y-154274068D01*
X172778589Y-154386010D01*
X172535368Y-154548525D01*
X172328525Y-154755368D01*
X172166010Y-154998589D01*
X172054068Y-155268842D01*
X171997000Y-155555740D01*
X171997000Y-155848260D01*
X171999729Y-155861982D01*
X171869000Y-155992711D01*
X171869000Y-155081289D01*
X173322019Y-153628271D01*
X173335740Y-153631000D01*
X173628260Y-153631000D01*
X173915158Y-153573932D01*
X174185411Y-153461990D01*
X174428632Y-153299475D01*
X174635475Y-153092632D01*
X174797990Y-152849411D01*
X174909932Y-152579158D01*
X174967000Y-152292260D01*
X174967000Y-151999740D01*
X174909932Y-151712842D01*
X174797990Y-151442589D01*
X174700043Y-151296000D01*
X177073928Y-151296000D01*
X177073928Y-152996000D01*
X177086188Y-153120482D01*
X177122498Y-153240180D01*
X177181463Y-153350494D01*
X177260815Y-153447185D01*
X177357506Y-153526537D01*
X177467820Y-153585502D01*
X177587518Y-153621812D01*
X177712000Y-153634072D01*
X179412000Y-153634072D01*
X179536482Y-153621812D01*
X179656180Y-153585502D01*
X179766494Y-153526537D01*
X179863185Y-153447185D01*
X179942537Y-153350494D01*
X180001502Y-153240180D01*
X180037812Y-153120482D01*
X180050072Y-152996000D01*
X180050072Y-151296000D01*
X180037812Y-151171518D01*
X180001502Y-151051820D01*
X179942537Y-150941506D01*
X179863185Y-150844815D01*
X179766494Y-150765463D01*
X179656180Y-150706498D01*
X179536482Y-150670188D01*
X179412000Y-150657928D01*
X177712000Y-150657928D01*
X177587518Y-150670188D01*
X177467820Y-150706498D01*
X177357506Y-150765463D01*
X177260815Y-150844815D01*
X177181463Y-150941506D01*
X177122498Y-151051820D01*
X177086188Y-151171518D01*
X177073928Y-151296000D01*
X174700043Y-151296000D01*
X174635475Y-151199368D01*
X174428632Y-150992525D01*
X174185411Y-150830010D01*
X173915158Y-150718068D01*
X173628260Y-150661000D01*
X173335740Y-150661000D01*
X173048842Y-150718068D01*
X172778589Y-150830010D01*
X172535368Y-150992525D01*
X172328525Y-151199368D01*
X172166010Y-151442589D01*
X172054068Y-151712842D01*
X171997000Y-151999740D01*
X171997000Y-152292260D01*
X171999729Y-152305981D01*
X170305336Y-154000375D01*
X170269657Y-154029656D01*
X170152815Y-154172028D01*
X170123866Y-154226188D01*
X170065994Y-154334460D01*
X170012529Y-154510709D01*
X169994476Y-154694000D01*
X169999001Y-154739942D01*
X169999000Y-156920071D01*
X168276348Y-155197419D01*
X168193990Y-154998589D01*
X168031475Y-154755368D01*
X167824632Y-154548525D01*
X167581411Y-154386010D01*
X167311158Y-154274068D01*
X167024260Y-154217000D01*
X166731740Y-154217000D01*
X166444842Y-154274068D01*
X166174589Y-154386010D01*
X165931368Y-154548525D01*
X165724525Y-154755368D01*
X165562010Y-154998589D01*
X165450068Y-155268842D01*
X165393000Y-155555740D01*
X165393000Y-155848260D01*
X165446456Y-156117001D01*
X165059290Y-156117001D01*
X164804271Y-155861982D01*
X164807000Y-155848260D01*
X164807000Y-155555740D01*
X164749932Y-155268842D01*
X164637990Y-154998589D01*
X164475475Y-154755368D01*
X164268632Y-154548525D01*
X164025411Y-154386010D01*
X163755158Y-154274068D01*
X163468260Y-154217000D01*
X163175740Y-154217000D01*
X162888842Y-154274068D01*
X162618589Y-154386010D01*
X162375368Y-154548525D01*
X162168525Y-154755368D01*
X162006010Y-154998589D01*
X161894068Y-155268842D01*
X161837000Y-155555740D01*
X161837000Y-155848260D01*
X161894068Y-156135158D01*
X162006010Y-156405411D01*
X162168525Y-156648632D01*
X162375368Y-156855475D01*
X162618589Y-157017990D01*
X162888842Y-157129932D01*
X163175740Y-157187000D01*
X163468260Y-157187000D01*
X163481982Y-157184271D01*
X163978371Y-157680660D01*
X164007657Y-157716345D01*
X164150029Y-157833187D01*
X164216021Y-157868460D01*
X164308703Y-157918000D01*
X163304289Y-157918000D01*
X161248271Y-155861982D01*
X161251000Y-155848260D01*
X161251000Y-155555740D01*
X161193932Y-155268842D01*
X161081990Y-154998589D01*
X160919475Y-154755368D01*
X160712632Y-154548525D01*
X160469411Y-154386010D01*
X160199158Y-154274068D01*
X159912260Y-154217000D01*
X159619740Y-154217000D01*
X159332842Y-154274068D01*
X159062589Y-154386010D01*
X158819368Y-154548525D01*
X158660000Y-154707893D01*
X158660000Y-152055184D01*
X158671820Y-152061502D01*
X158791518Y-152097812D01*
X158916000Y-152110072D01*
X160616000Y-152110072D01*
X160740482Y-152097812D01*
X160860180Y-152061502D01*
X160970494Y-152002537D01*
X161067185Y-151923185D01*
X161146537Y-151826494D01*
X161205502Y-151716180D01*
X161241812Y-151596482D01*
X161254072Y-151472000D01*
X161254072Y-149772000D01*
X161833928Y-149772000D01*
X161833928Y-151472000D01*
X161846188Y-151596482D01*
X161882498Y-151716180D01*
X161941463Y-151826494D01*
X162020815Y-151923185D01*
X162117506Y-152002537D01*
X162227820Y-152061502D01*
X162347518Y-152097812D01*
X162472000Y-152110072D01*
X164172000Y-152110072D01*
X164296482Y-152097812D01*
X164416180Y-152061502D01*
X164526494Y-152002537D01*
X164623185Y-151923185D01*
X164702537Y-151826494D01*
X164761502Y-151716180D01*
X164797812Y-151596482D01*
X164810072Y-151472000D01*
X164810072Y-149772000D01*
X165389928Y-149772000D01*
X165389928Y-151472000D01*
X165402188Y-151596482D01*
X165438498Y-151716180D01*
X165497463Y-151826494D01*
X165576815Y-151923185D01*
X165673506Y-152002537D01*
X165783820Y-152061502D01*
X165903518Y-152097812D01*
X166028000Y-152110072D01*
X167728000Y-152110072D01*
X167852482Y-152097812D01*
X167972180Y-152061502D01*
X168082494Y-152002537D01*
X168179185Y-151923185D01*
X168258537Y-151826494D01*
X168317502Y-151716180D01*
X168353812Y-151596482D01*
X168366072Y-151472000D01*
X168366072Y-149772000D01*
X168353812Y-149647518D01*
X168317502Y-149527820D01*
X168258537Y-149417506D01*
X168179185Y-149320815D01*
X168082494Y-149241463D01*
X167972180Y-149182498D01*
X167852482Y-149146188D01*
X167728000Y-149133928D01*
X166028000Y-149133928D01*
X165903518Y-149146188D01*
X165783820Y-149182498D01*
X165673506Y-149241463D01*
X165576815Y-149320815D01*
X165497463Y-149417506D01*
X165438498Y-149527820D01*
X165402188Y-149647518D01*
X165389928Y-149772000D01*
X164810072Y-149772000D01*
X164797812Y-149647518D01*
X164761502Y-149527820D01*
X164702537Y-149417506D01*
X164623185Y-149320815D01*
X164526494Y-149241463D01*
X164416180Y-149182498D01*
X164296482Y-149146188D01*
X164172000Y-149133928D01*
X162472000Y-149133928D01*
X162347518Y-149146188D01*
X162227820Y-149182498D01*
X162117506Y-149241463D01*
X162020815Y-149320815D01*
X161941463Y-149417506D01*
X161882498Y-149527820D01*
X161846188Y-149647518D01*
X161833928Y-149772000D01*
X161254072Y-149772000D01*
X161241812Y-149647518D01*
X161205502Y-149527820D01*
X161146537Y-149417506D01*
X161067185Y-149320815D01*
X160970494Y-149241463D01*
X160860180Y-149182498D01*
X160740482Y-149146188D01*
X160616000Y-149133928D01*
X158916000Y-149133928D01*
X158791518Y-149146188D01*
X158671820Y-149182498D01*
X158660000Y-149188816D01*
X158660000Y-146316000D01*
X173136928Y-146316000D01*
X173136928Y-147816000D01*
X173153992Y-147989254D01*
X173204528Y-148155850D01*
X173286595Y-148309386D01*
X173397038Y-148443962D01*
X173531614Y-148554405D01*
X173685150Y-148636472D01*
X173851746Y-148687008D01*
X174025000Y-148704072D01*
X175225000Y-148704072D01*
X175398254Y-148687008D01*
X175564850Y-148636472D01*
X175718386Y-148554405D01*
X175852962Y-148443962D01*
X175963405Y-148309386D01*
X176045472Y-148155850D01*
X176096008Y-147989254D01*
X176113072Y-147816000D01*
X176113072Y-146316000D01*
X176096008Y-146142746D01*
X176045472Y-145976150D01*
X175963405Y-145822614D01*
X175852962Y-145688038D01*
X175718386Y-145577595D01*
X175564850Y-145495528D01*
X175398254Y-145444992D01*
X175225000Y-145427928D01*
X174025000Y-145427928D01*
X173851746Y-145444992D01*
X173685150Y-145495528D01*
X173531614Y-145577595D01*
X173397038Y-145688038D01*
X173286595Y-145822614D01*
X173204528Y-145976150D01*
X173153992Y-146142746D01*
X173136928Y-146316000D01*
X158660000Y-146316000D01*
X158660000Y-143783031D01*
X158945120Y-143973542D01*
X159350408Y-144141418D01*
X159780660Y-144227000D01*
X160219340Y-144227000D01*
X160649592Y-144141418D01*
X161054880Y-143973542D01*
X161419630Y-143729824D01*
X161729824Y-143419630D01*
X161973542Y-143054880D01*
X162141418Y-142649592D01*
X162227000Y-142219340D01*
X162227000Y-141780660D01*
X162141418Y-141350408D01*
X161973542Y-140945120D01*
X161783031Y-140660000D01*
X178216969Y-140660000D01*
X178026458Y-140945120D01*
%TA.AperFunction,Conductor*%
D16*
G36*
X178026458Y-140945120D02*
G01*
X177858582Y-141350408D01*
X177773000Y-141780660D01*
X177773000Y-142219340D01*
X177858582Y-142649592D01*
X178026458Y-143054880D01*
X178270176Y-143419630D01*
X178580370Y-143729824D01*
X178945120Y-143973542D01*
X179350408Y-144141418D01*
X179780660Y-144227000D01*
X180219340Y-144227000D01*
X180649592Y-144141418D01*
X181054880Y-143973542D01*
X181340000Y-143783031D01*
X181340001Y-160216970D01*
X181054880Y-160026458D01*
X180649592Y-159858582D01*
X180219340Y-159773000D01*
X179780660Y-159773000D01*
X179350408Y-159858582D01*
X178945120Y-160026458D01*
X178580370Y-160270176D01*
X178270176Y-160580370D01*
X178026458Y-160945120D01*
X177858582Y-161350408D01*
X177773000Y-161780660D01*
X177773000Y-162219340D01*
X177858582Y-162649592D01*
X178026458Y-163054880D01*
X178216969Y-163340000D01*
X177007974Y-163340000D01*
X177111411Y-163284712D01*
X177272505Y-163152505D01*
X177404712Y-162991411D01*
X177502950Y-162807620D01*
X177563445Y-162608195D01*
X177583872Y-162400800D01*
X177583872Y-161550800D01*
X177563445Y-161343405D01*
X177502950Y-161143980D01*
X177404712Y-160960189D01*
X177272505Y-160799095D01*
X177111411Y-160666888D01*
X176927620Y-160568650D01*
X176728195Y-160508155D01*
X176520800Y-160487728D01*
X175370800Y-160487728D01*
X175163405Y-160508155D01*
X174963980Y-160568650D01*
X174780189Y-160666888D01*
X174619095Y-160799095D01*
X174486888Y-160960189D01*
X174388650Y-161143980D01*
X174387054Y-161149242D01*
X174325850Y-161116528D01*
X174159254Y-161065992D01*
X173986000Y-161048928D01*
X173900601Y-161048928D01*
X172967745Y-160116072D01*
X173084000Y-160116072D01*
X173237745Y-160100929D01*
X173385582Y-160056084D01*
X173434000Y-160030204D01*
X173482418Y-160056084D01*
X173630255Y-160100929D01*
X173784000Y-160116072D01*
X174084000Y-160116072D01*
X174237745Y-160100929D01*
X174385582Y-160056084D01*
X174521829Y-159983258D01*
X174641251Y-159885251D01*
X174721063Y-159788000D01*
X176538458Y-159788000D01*
X176547744Y-159794205D01*
X176736102Y-159872226D01*
X176936061Y-159912000D01*
X177139939Y-159912000D01*
X177339898Y-159872226D01*
X177528256Y-159794205D01*
X177697774Y-159680937D01*
X177841937Y-159536774D01*
X177926215Y-159410643D01*
X177980150Y-159439472D01*
X178146746Y-159490008D01*
X178320000Y-159507072D01*
X179820000Y-159507072D01*
X179993254Y-159490008D01*
X180159850Y-159439472D01*
X180313386Y-159357405D01*
X180447962Y-159246962D01*
X180558405Y-159112386D01*
X180640472Y-158958850D01*
X180691008Y-158792254D01*
X180708072Y-158619000D01*
X180708072Y-158119000D01*
X180691008Y-157945746D01*
X180640472Y-157779150D01*
X180558405Y-157625614D01*
X180447962Y-157491038D01*
X180313386Y-157380595D01*
X180159850Y-157298528D01*
X179993254Y-157247992D01*
X179820000Y-157230928D01*
X179254217Y-157230928D01*
X179213361Y-157190072D01*
X179412000Y-157190072D01*
X179536482Y-157177812D01*
X179656180Y-157141502D01*
X179766494Y-157082537D01*
X179863185Y-157003185D01*
X179942537Y-156906494D01*
X180001502Y-156796180D01*
X180037812Y-156676482D01*
X180050072Y-156552000D01*
X180050072Y-154852000D01*
X180037812Y-154727518D01*
X180001502Y-154607820D01*
X179942537Y-154497506D01*
X179863185Y-154400815D01*
X179766494Y-154321463D01*
X179656180Y-154262498D01*
X179536482Y-154226188D01*
X179412000Y-154213928D01*
X177712000Y-154213928D01*
X177587518Y-154226188D01*
X177467820Y-154262498D01*
X177357506Y-154321463D01*
X177260815Y-154400815D01*
X177181463Y-154497506D01*
X177122498Y-154607820D01*
X177086188Y-154727518D01*
X177073928Y-154852000D01*
X177073928Y-156552000D01*
X177086188Y-156676482D01*
X177121530Y-156792990D01*
X174491117Y-156792990D01*
X174635475Y-156648632D01*
X174797990Y-156405411D01*
X174909932Y-156135158D01*
X174967000Y-155848260D01*
X174967000Y-155555740D01*
X174909932Y-155268842D01*
X174797990Y-154998589D01*
X174635475Y-154755368D01*
X174428632Y-154548525D01*
X174185411Y-154386010D01*
X173915158Y-154274068D01*
X173628260Y-154217000D01*
X173335740Y-154217000D01*
X173048842Y-154274068D01*
X172778589Y-154386010D01*
X172535368Y-154548525D01*
X172328525Y-154755368D01*
X172166010Y-154998589D01*
X172054068Y-155268842D01*
X171997000Y-155555740D01*
X171997000Y-155848260D01*
X171999729Y-155861982D01*
X171869000Y-155992711D01*
X171869000Y-155081289D01*
X173322019Y-153628271D01*
X173335740Y-153631000D01*
X173628260Y-153631000D01*
X173915158Y-153573932D01*
X174185411Y-153461990D01*
X174428632Y-153299475D01*
X174635475Y-153092632D01*
X174797990Y-152849411D01*
X174909932Y-152579158D01*
X174967000Y-152292260D01*
X174967000Y-151999740D01*
X174909932Y-151712842D01*
X174797990Y-151442589D01*
X174700043Y-151296000D01*
X177073928Y-151296000D01*
X177073928Y-152996000D01*
X177086188Y-153120482D01*
X177122498Y-153240180D01*
X177181463Y-153350494D01*
X177260815Y-153447185D01*
X177357506Y-153526537D01*
X177467820Y-153585502D01*
X177587518Y-153621812D01*
X177712000Y-153634072D01*
X179412000Y-153634072D01*
X179536482Y-153621812D01*
X179656180Y-153585502D01*
X179766494Y-153526537D01*
X179863185Y-153447185D01*
X179942537Y-153350494D01*
X180001502Y-153240180D01*
X180037812Y-153120482D01*
X180050072Y-152996000D01*
X180050072Y-151296000D01*
X180037812Y-151171518D01*
X180001502Y-151051820D01*
X179942537Y-150941506D01*
X179863185Y-150844815D01*
X179766494Y-150765463D01*
X179656180Y-150706498D01*
X179536482Y-150670188D01*
X179412000Y-150657928D01*
X177712000Y-150657928D01*
X177587518Y-150670188D01*
X177467820Y-150706498D01*
X177357506Y-150765463D01*
X177260815Y-150844815D01*
X177181463Y-150941506D01*
X177122498Y-151051820D01*
X177086188Y-151171518D01*
X177073928Y-151296000D01*
X174700043Y-151296000D01*
X174635475Y-151199368D01*
X174428632Y-150992525D01*
X174185411Y-150830010D01*
X173915158Y-150718068D01*
X173628260Y-150661000D01*
X173335740Y-150661000D01*
X173048842Y-150718068D01*
X172778589Y-150830010D01*
X172535368Y-150992525D01*
X172328525Y-151199368D01*
X172166010Y-151442589D01*
X172054068Y-151712842D01*
X171997000Y-151999740D01*
X171997000Y-152292260D01*
X171999729Y-152305981D01*
X170305336Y-154000375D01*
X170269657Y-154029656D01*
X170152815Y-154172028D01*
X170123866Y-154226188D01*
X170065994Y-154334460D01*
X170012529Y-154510709D01*
X169994476Y-154694000D01*
X169999001Y-154739942D01*
X169999000Y-156920071D01*
X168276348Y-155197419D01*
X168193990Y-154998589D01*
X168031475Y-154755368D01*
X167824632Y-154548525D01*
X167581411Y-154386010D01*
X167311158Y-154274068D01*
X167024260Y-154217000D01*
X166731740Y-154217000D01*
X166444842Y-154274068D01*
X166174589Y-154386010D01*
X165931368Y-154548525D01*
X165724525Y-154755368D01*
X165562010Y-154998589D01*
X165450068Y-155268842D01*
X165393000Y-155555740D01*
X165393000Y-155848260D01*
X165446456Y-156117001D01*
X165059290Y-156117001D01*
X164804271Y-155861982D01*
X164807000Y-155848260D01*
X164807000Y-155555740D01*
X164749932Y-155268842D01*
X164637990Y-154998589D01*
X164475475Y-154755368D01*
X164268632Y-154548525D01*
X164025411Y-154386010D01*
X163755158Y-154274068D01*
X163468260Y-154217000D01*
X163175740Y-154217000D01*
X162888842Y-154274068D01*
X162618589Y-154386010D01*
X162375368Y-154548525D01*
X162168525Y-154755368D01*
X162006010Y-154998589D01*
X161894068Y-155268842D01*
X161837000Y-155555740D01*
X161837000Y-155848260D01*
X161894068Y-156135158D01*
X162006010Y-156405411D01*
X162168525Y-156648632D01*
X162375368Y-156855475D01*
X162618589Y-157017990D01*
X162888842Y-157129932D01*
X163175740Y-157187000D01*
X163468260Y-157187000D01*
X163481982Y-157184271D01*
X163978371Y-157680660D01*
X164007657Y-157716345D01*
X164150029Y-157833187D01*
X164216021Y-157868460D01*
X164308703Y-157918000D01*
X163304289Y-157918000D01*
X161248271Y-155861982D01*
X161251000Y-155848260D01*
X161251000Y-155555740D01*
X161193932Y-155268842D01*
X161081990Y-154998589D01*
X160919475Y-154755368D01*
X160712632Y-154548525D01*
X160469411Y-154386010D01*
X160199158Y-154274068D01*
X159912260Y-154217000D01*
X159619740Y-154217000D01*
X159332842Y-154274068D01*
X159062589Y-154386010D01*
X158819368Y-154548525D01*
X158660000Y-154707893D01*
X158660000Y-152055184D01*
X158671820Y-152061502D01*
X158791518Y-152097812D01*
X158916000Y-152110072D01*
X160616000Y-152110072D01*
X160740482Y-152097812D01*
X160860180Y-152061502D01*
X160970494Y-152002537D01*
X161067185Y-151923185D01*
X161146537Y-151826494D01*
X161205502Y-151716180D01*
X161241812Y-151596482D01*
X161254072Y-151472000D01*
X161254072Y-149772000D01*
X161833928Y-149772000D01*
X161833928Y-151472000D01*
X161846188Y-151596482D01*
X161882498Y-151716180D01*
X161941463Y-151826494D01*
X162020815Y-151923185D01*
X162117506Y-152002537D01*
X162227820Y-152061502D01*
X162347518Y-152097812D01*
X162472000Y-152110072D01*
X164172000Y-152110072D01*
X164296482Y-152097812D01*
X164416180Y-152061502D01*
X164526494Y-152002537D01*
X164623185Y-151923185D01*
X164702537Y-151826494D01*
X164761502Y-151716180D01*
X164797812Y-151596482D01*
X164810072Y-151472000D01*
X164810072Y-149772000D01*
X165389928Y-149772000D01*
X165389928Y-151472000D01*
X165402188Y-151596482D01*
X165438498Y-151716180D01*
X165497463Y-151826494D01*
X165576815Y-151923185D01*
X165673506Y-152002537D01*
X165783820Y-152061502D01*
X165903518Y-152097812D01*
X166028000Y-152110072D01*
X167728000Y-152110072D01*
X167852482Y-152097812D01*
X167972180Y-152061502D01*
X168082494Y-152002537D01*
X168179185Y-151923185D01*
X168258537Y-151826494D01*
X168317502Y-151716180D01*
X168353812Y-151596482D01*
X168366072Y-151472000D01*
X168366072Y-149772000D01*
X168353812Y-149647518D01*
X168317502Y-149527820D01*
X168258537Y-149417506D01*
X168179185Y-149320815D01*
X168082494Y-149241463D01*
X167972180Y-149182498D01*
X167852482Y-149146188D01*
X167728000Y-149133928D01*
X166028000Y-149133928D01*
X165903518Y-149146188D01*
X165783820Y-149182498D01*
X165673506Y-149241463D01*
X165576815Y-149320815D01*
X165497463Y-149417506D01*
X165438498Y-149527820D01*
X165402188Y-149647518D01*
X165389928Y-149772000D01*
X164810072Y-149772000D01*
X164797812Y-149647518D01*
X164761502Y-149527820D01*
X164702537Y-149417506D01*
X164623185Y-149320815D01*
X164526494Y-149241463D01*
X164416180Y-149182498D01*
X164296482Y-149146188D01*
X164172000Y-149133928D01*
X162472000Y-149133928D01*
X162347518Y-149146188D01*
X162227820Y-149182498D01*
X162117506Y-149241463D01*
X162020815Y-149320815D01*
X161941463Y-149417506D01*
X161882498Y-149527820D01*
X161846188Y-149647518D01*
X161833928Y-149772000D01*
X161254072Y-149772000D01*
X161241812Y-149647518D01*
X161205502Y-149527820D01*
X161146537Y-149417506D01*
X161067185Y-149320815D01*
X160970494Y-149241463D01*
X160860180Y-149182498D01*
X160740482Y-149146188D01*
X160616000Y-149133928D01*
X158916000Y-149133928D01*
X158791518Y-149146188D01*
X158671820Y-149182498D01*
X158660000Y-149188816D01*
X158660000Y-146316000D01*
X173136928Y-146316000D01*
X173136928Y-147816000D01*
X173153992Y-147989254D01*
X173204528Y-148155850D01*
X173286595Y-148309386D01*
X173397038Y-148443962D01*
X173531614Y-148554405D01*
X173685150Y-148636472D01*
X173851746Y-148687008D01*
X174025000Y-148704072D01*
X175225000Y-148704072D01*
X175398254Y-148687008D01*
X175564850Y-148636472D01*
X175718386Y-148554405D01*
X175852962Y-148443962D01*
X175963405Y-148309386D01*
X176045472Y-148155850D01*
X176096008Y-147989254D01*
X176113072Y-147816000D01*
X176113072Y-146316000D01*
X176096008Y-146142746D01*
X176045472Y-145976150D01*
X175963405Y-145822614D01*
X175852962Y-145688038D01*
X175718386Y-145577595D01*
X175564850Y-145495528D01*
X175398254Y-145444992D01*
X175225000Y-145427928D01*
X174025000Y-145427928D01*
X173851746Y-145444992D01*
X173685150Y-145495528D01*
X173531614Y-145577595D01*
X173397038Y-145688038D01*
X173286595Y-145822614D01*
X173204528Y-145976150D01*
X173153992Y-146142746D01*
X173136928Y-146316000D01*
X158660000Y-146316000D01*
X158660000Y-143783031D01*
X158945120Y-143973542D01*
X159350408Y-144141418D01*
X159780660Y-144227000D01*
X160219340Y-144227000D01*
X160649592Y-144141418D01*
X161054880Y-143973542D01*
X161419630Y-143729824D01*
X161729824Y-143419630D01*
X161973542Y-143054880D01*
X162141418Y-142649592D01*
X162227000Y-142219340D01*
X162227000Y-141780660D01*
X162141418Y-141350408D01*
X161973542Y-140945120D01*
X161783031Y-140660000D01*
X178216969Y-140660000D01*
X178026458Y-140945120D01*
G37*
%TD.AperFunction*%
%TD*%
M02*
