%TF.GenerationSoftware,KiCad,Pcbnew,(5.1.9)-1*%
%TF.CreationDate,2021-08-13T14:48:15+01:00*%
%TF.ProjectId,5-servos,352d7365-7276-46f7-932e-6b696361645f,rev?*%
%TF.SameCoordinates,Original*%
%TF.FileFunction,Legend,Top*%
%TF.FilePolarity,Positive*%
%FSLAX46Y46*%
G04 Gerber Fmt 4.6, Leading zero omitted, Abs format (unit mm)*
G04 Created by KiCad (PCBNEW (5.1.9)-1) date 2021-08-13 14:48:15*
%MOMM*%
%LPD*%
G01*
G04 APERTURE LIST*
%ADD10C,0.153000*%
%ADD11C,0.120000*%
G04 APERTURE END LIST*
D10*
X168344904Y-146716571D02*
X169144904Y-146449904D01*
X168344904Y-146183238D01*
X168725857Y-145649904D02*
X168763952Y-145535619D01*
X168802047Y-145497523D01*
X168878238Y-145459428D01*
X168992523Y-145459428D01*
X169068714Y-145497523D01*
X169106809Y-145535619D01*
X169144904Y-145611809D01*
X169144904Y-145916571D01*
X168344904Y-145916571D01*
X168344904Y-145649904D01*
X168383000Y-145573714D01*
X168421095Y-145535619D01*
X168497285Y-145497523D01*
X168573476Y-145497523D01*
X168649666Y-145535619D01*
X168687761Y-145573714D01*
X168725857Y-145649904D01*
X168725857Y-145916571D01*
X168725857Y-145116571D02*
X168725857Y-144849904D01*
X169144904Y-144735619D02*
X169144904Y-145116571D01*
X168344904Y-145116571D01*
X168344904Y-144735619D01*
X169068714Y-143935619D02*
X169106809Y-143973714D01*
X169144904Y-144088000D01*
X169144904Y-144164190D01*
X169106809Y-144278476D01*
X169030619Y-144354666D01*
X168954428Y-144392761D01*
X168802047Y-144430857D01*
X168687761Y-144430857D01*
X168535380Y-144392761D01*
X168459190Y-144354666D01*
X168383000Y-144278476D01*
X168344904Y-144164190D01*
X168344904Y-144088000D01*
X168383000Y-143973714D01*
X168421095Y-143935619D01*
X177882714Y-159200904D02*
X178149380Y-160000904D01*
X178416047Y-159200904D01*
X178949380Y-159581857D02*
X179063666Y-159619952D01*
X179101761Y-159658047D01*
X179139857Y-159734238D01*
X179139857Y-159848523D01*
X179101761Y-159924714D01*
X179063666Y-159962809D01*
X178987476Y-160000904D01*
X178682714Y-160000904D01*
X178682714Y-159200904D01*
X178949380Y-159200904D01*
X179025571Y-159239000D01*
X179063666Y-159277095D01*
X179101761Y-159353285D01*
X179101761Y-159429476D01*
X179063666Y-159505666D01*
X179025571Y-159543761D01*
X178949380Y-159581857D01*
X178682714Y-159581857D01*
X179444619Y-159772333D02*
X179825571Y-159772333D01*
X179368428Y-160000904D02*
X179635095Y-159200904D01*
X179901761Y-160000904D01*
X180054142Y-159200904D02*
X180511285Y-159200904D01*
X180282714Y-160000904D02*
X180282714Y-159200904D01*
X173659838Y-160331142D02*
X174269361Y-160331142D01*
X173016626Y-160216857D02*
X173130912Y-160254952D01*
X173169007Y-160293047D01*
X173207103Y-160369238D01*
X173207103Y-160483523D01*
X173169007Y-160559714D01*
X173130912Y-160597809D01*
X173054722Y-160635904D01*
X172749960Y-160635904D01*
X172749960Y-159835904D01*
X173016626Y-159835904D01*
X173092817Y-159874000D01*
X173130912Y-159912095D01*
X173169007Y-159988285D01*
X173169007Y-160064476D01*
X173130912Y-160140666D01*
X173092817Y-160178761D01*
X173016626Y-160216857D01*
X172749960Y-160216857D01*
X167667247Y-159835904D02*
X168200580Y-160635904D01*
X168200580Y-159835904D02*
X167667247Y-160635904D01*
X172144846Y-159835904D02*
X171763893Y-159835904D01*
X171725798Y-160216857D01*
X171763893Y-160178761D01*
X171840084Y-160140666D01*
X172030560Y-160140666D01*
X172106750Y-160178761D01*
X172144846Y-160216857D01*
X172182941Y-160293047D01*
X172182941Y-160483523D01*
X172144846Y-160559714D01*
X172106750Y-160597809D01*
X172030560Y-160635904D01*
X171840084Y-160635904D01*
X171763893Y-160597809D01*
X171725798Y-160559714D01*
X171101636Y-160102571D02*
X171101636Y-160635904D01*
X170911160Y-159797809D02*
X170720684Y-160369238D01*
X171215922Y-160369238D01*
X168710456Y-159912095D02*
X168748551Y-159874000D01*
X168824742Y-159835904D01*
X169015218Y-159835904D01*
X169091408Y-159874000D01*
X169129504Y-159912095D01*
X169167599Y-159988285D01*
X169167599Y-160064476D01*
X169129504Y-160178761D01*
X168672361Y-160635904D01*
X169167599Y-160635904D01*
X167157371Y-160635904D02*
X166700228Y-160635904D01*
X166928800Y-160635904D02*
X166928800Y-159835904D01*
X166852609Y-159950190D01*
X166776419Y-160026380D01*
X166700228Y-160064476D01*
X169677475Y-159835904D02*
X170172713Y-159835904D01*
X169906046Y-160140666D01*
X170020332Y-160140666D01*
X170096522Y-160178761D01*
X170134618Y-160216857D01*
X170172713Y-160293047D01*
X170172713Y-160483523D01*
X170134618Y-160559714D01*
X170096522Y-160597809D01*
X170020332Y-160635904D01*
X169791761Y-160635904D01*
X169715570Y-160597809D01*
X169677475Y-160559714D01*
X166611333Y-148151904D02*
X167106571Y-148151904D01*
X166839904Y-148456666D01*
X166954190Y-148456666D01*
X167030380Y-148494761D01*
X167068476Y-148532857D01*
X167106571Y-148609047D01*
X167106571Y-148799523D01*
X167068476Y-148875714D01*
X167030380Y-148913809D01*
X166954190Y-148951904D01*
X166725619Y-148951904D01*
X166649428Y-148913809D01*
X166611333Y-148875714D01*
X163093428Y-148228095D02*
X163131523Y-148190000D01*
X163207714Y-148151904D01*
X163398190Y-148151904D01*
X163474380Y-148190000D01*
X163512476Y-148228095D01*
X163550571Y-148304285D01*
X163550571Y-148380476D01*
X163512476Y-148494761D01*
X163055333Y-148951904D01*
X163550571Y-148951904D01*
X159994571Y-148951904D02*
X159537428Y-148951904D01*
X159766000Y-148951904D02*
X159766000Y-148151904D01*
X159689809Y-148266190D01*
X159613619Y-148342380D01*
X159537428Y-148380476D01*
X173729619Y-150399714D02*
X173691523Y-150437809D01*
X173577238Y-150475904D01*
X173501047Y-150475904D01*
X173386761Y-150437809D01*
X173310571Y-150361619D01*
X173272476Y-150285428D01*
X173234380Y-150133047D01*
X173234380Y-150018761D01*
X173272476Y-149866380D01*
X173310571Y-149790190D01*
X173386761Y-149714000D01*
X173501047Y-149675904D01*
X173577238Y-149675904D01*
X173691523Y-149714000D01*
X173729619Y-149752095D01*
X171348380Y-151974571D02*
X171348380Y-152507904D01*
X171157904Y-151669809D02*
X170967428Y-152241238D01*
X171462666Y-152241238D01*
X171386476Y-155263904D02*
X171005523Y-155263904D01*
X170967428Y-155644857D01*
X171005523Y-155606761D01*
X171081714Y-155568666D01*
X171272190Y-155568666D01*
X171348380Y-155606761D01*
X171386476Y-155644857D01*
X171424571Y-155721047D01*
X171424571Y-155911523D01*
X171386476Y-155987714D01*
X171348380Y-156025809D01*
X171272190Y-156063904D01*
X171081714Y-156063904D01*
X171005523Y-156025809D01*
X170967428Y-155987714D01*
X169157619Y-156114714D02*
X169119523Y-156152809D01*
X169005238Y-156190904D01*
X168929047Y-156190904D01*
X168814761Y-156152809D01*
X168738571Y-156076619D01*
X168700476Y-156000428D01*
X168662380Y-155848047D01*
X168662380Y-155733761D01*
X168700476Y-155581380D01*
X168738571Y-155505190D01*
X168814761Y-155429000D01*
X168929047Y-155390904D01*
X169005238Y-155390904D01*
X169119523Y-155429000D01*
X169157619Y-155467095D01*
X180289238Y-155886142D02*
X180898761Y-155886142D01*
X180289238Y-152330142D02*
X180898761Y-152330142D01*
X178257238Y-150171142D02*
X178866761Y-150171142D01*
X176079142Y-150418761D02*
X176079142Y-149809238D01*
X176383904Y-150114000D02*
X175774380Y-150114000D01*
X168605238Y-150806142D02*
X169214761Y-150806142D01*
X168605238Y-153346142D02*
X169214761Y-153346142D01*
X168910000Y-153650904D02*
X168910000Y-153041380D01*
X172142142Y-149148761D02*
X172142142Y-148539238D01*
X172446904Y-148844000D02*
X171837380Y-148844000D01*
D11*
%TO.C,J1*%
X175944000Y-163638000D02*
X175944000Y-163088000D01*
X164924000Y-163638000D02*
X175944000Y-163638000D01*
X164924000Y-163088000D02*
X164924000Y-163638000D01*
X175944000Y-159118000D02*
X174494000Y-159118000D01*
X175944000Y-160868000D02*
X175944000Y-159118000D01*
X166374000Y-159118000D02*
X166374000Y-158228000D01*
X164924000Y-159118000D02*
X166374000Y-159118000D01*
X164924000Y-160868000D02*
X164924000Y-159118000D01*
%TO.C,J10*%
X158436000Y-149292000D02*
X159766000Y-149292000D01*
X158436000Y-150622000D02*
X158436000Y-149292000D01*
X158436000Y-151892000D02*
X161096000Y-151892000D01*
X161096000Y-151892000D02*
X161096000Y-157032000D01*
X158436000Y-151892000D02*
X158436000Y-157032000D01*
X158436000Y-157032000D02*
X161096000Y-157032000D01*
%TO.C,J5*%
X161992000Y-149292000D02*
X163322000Y-149292000D01*
X161992000Y-150622000D02*
X161992000Y-149292000D01*
X161992000Y-151892000D02*
X164652000Y-151892000D01*
X164652000Y-151892000D02*
X164652000Y-157032000D01*
X161992000Y-151892000D02*
X161992000Y-157032000D01*
X161992000Y-157032000D02*
X164652000Y-157032000D01*
%TO.C,J4*%
X165548000Y-149292000D02*
X166878000Y-149292000D01*
X165548000Y-150622000D02*
X165548000Y-149292000D01*
X165548000Y-151892000D02*
X168208000Y-151892000D01*
X168208000Y-151892000D02*
X168208000Y-157032000D01*
X165548000Y-151892000D02*
X165548000Y-157032000D01*
X165548000Y-157032000D02*
X168208000Y-157032000D01*
%TO.C,J3*%
X179892000Y-150816000D02*
X179892000Y-152146000D01*
X178562000Y-150816000D02*
X179892000Y-150816000D01*
X177292000Y-150816000D02*
X177292000Y-153476000D01*
X177292000Y-153476000D02*
X172152000Y-153476000D01*
X177292000Y-150816000D02*
X172152000Y-150816000D01*
X172152000Y-150816000D02*
X172152000Y-153476000D01*
%TO.C,J2*%
X179892000Y-154372000D02*
X179892000Y-155702000D01*
X178562000Y-154372000D02*
X179892000Y-154372000D01*
X177292000Y-154372000D02*
X177292000Y-157032000D01*
X177292000Y-157032000D02*
X172152000Y-157032000D01*
X177292000Y-154372000D02*
X172152000Y-154372000D01*
X172152000Y-154372000D02*
X172152000Y-157032000D01*
%TO.C,J6*%
X173375000Y-137756000D02*
X177185000Y-137756000D01*
X177185000Y-137756000D02*
X177185000Y-149476000D01*
X177185000Y-149476000D02*
X175765000Y-149476000D01*
X175765000Y-149476000D02*
X175765000Y-144976000D01*
X175765000Y-144976000D02*
X173375000Y-144976000D01*
X173375000Y-137756000D02*
X169565000Y-137756000D01*
X169565000Y-137756000D02*
X169565000Y-149476000D01*
X169565000Y-149476000D02*
X170985000Y-149476000D01*
X170985000Y-149476000D02*
X170985000Y-144976000D01*
X170985000Y-144976000D02*
X173375000Y-144976000D01*
X174875000Y-143866000D02*
X174875000Y-138366000D01*
X174875000Y-138366000D02*
X174375000Y-138366000D01*
X174375000Y-138366000D02*
X174375000Y-143866000D01*
X174375000Y-143866000D02*
X174875000Y-143866000D01*
X172375000Y-143866000D02*
X172375000Y-138366000D01*
X172375000Y-138366000D02*
X171875000Y-138366000D01*
X171875000Y-138366000D02*
X171875000Y-143866000D01*
X171875000Y-143866000D02*
X172375000Y-143866000D01*
X174625000Y-148566000D02*
X174925000Y-149166000D01*
X174925000Y-149166000D02*
X174325000Y-149166000D01*
X174325000Y-149166000D02*
X174625000Y-148566000D01*
%TD*%
M02*
