%TF.GenerationSoftware,KiCad,Pcbnew,(5.1.9)-1*%
%TF.CreationDate,2021-08-13T14:48:15+01:00*%
%TF.ProjectId,5-servos,352d7365-7276-46f7-932e-6b696361645f,rev?*%
%TF.SameCoordinates,Original*%
%TF.FileFunction,Copper,L2,Bot*%
%TF.FilePolarity,Positive*%
%FSLAX46Y46*%
G04 Gerber Fmt 4.6, Leading zero omitted, Abs format (unit mm)*
G04 Created by KiCad (PCBNEW (5.1.9)-1) date 2021-08-13 14:48:15*
%MOMM*%
%LPD*%
G01*
G04 APERTURE LIST*
%TA.AperFunction,ComponentPad*%
%ADD10O,1.700000X1.700000*%
%TD*%
%TA.AperFunction,ComponentPad*%
%ADD11R,1.700000X1.700000*%
%TD*%
%TA.AperFunction,ComponentPad*%
%ADD12O,1.700000X2.000000*%
%TD*%
%TA.AperFunction,ViaPad*%
%ADD13C,0.800000*%
%TD*%
%TA.AperFunction,Conductor*%
%ADD14C,0.254000*%
%TD*%
%TA.AperFunction,Conductor*%
%ADD15C,0.100000*%
%TD*%
G04 APERTURE END LIST*
D10*
%TO.P,J10,3*%
%TO.N,Net-(J1-Pad1)*%
X159766000Y-155702000D03*
%TO.P,J10,2*%
%TO.N,+BATT*%
X159766000Y-153162000D03*
D11*
%TO.P,J10,1*%
%TO.N,GND*%
X159766000Y-150622000D03*
%TD*%
D10*
%TO.P,J5,3*%
%TO.N,Net-(J1-Pad3)*%
X163322000Y-155702000D03*
%TO.P,J5,2*%
%TO.N,+BATT*%
X163322000Y-153162000D03*
D11*
%TO.P,J5,1*%
%TO.N,GND*%
X163322000Y-150622000D03*
%TD*%
D10*
%TO.P,J4,3*%
%TO.N,Net-(J1-Pad4)*%
X166878000Y-155702000D03*
%TO.P,J4,2*%
%TO.N,+BATT*%
X166878000Y-153162000D03*
D11*
%TO.P,J4,1*%
%TO.N,GND*%
X166878000Y-150622000D03*
%TD*%
D10*
%TO.P,J3,3*%
%TO.N,Net-(J1-Pad5)*%
X173482000Y-152146000D03*
%TO.P,J3,2*%
%TO.N,+BATT*%
X176022000Y-152146000D03*
D11*
%TO.P,J3,1*%
%TO.N,GND*%
X178562000Y-152146000D03*
%TD*%
D10*
%TO.P,J2,3*%
%TO.N,Net-(J1-Pad6)*%
X173482000Y-155702000D03*
%TO.P,J2,2*%
%TO.N,+BATT*%
X176022000Y-155702000D03*
D11*
%TO.P,J2,1*%
%TO.N,GND*%
X178562000Y-155702000D03*
%TD*%
D12*
%TO.P,J6,2*%
%TO.N,+BATT*%
X172125000Y-147066000D03*
%TO.P,J6,1*%
%TO.N,GND*%
%TA.AperFunction,ComponentPad*%
G36*
G01*
X175475000Y-146316000D02*
X175475000Y-147816000D01*
G75*
G02*
X175225000Y-148066000I-250000J0D01*
G01*
X174025000Y-148066000D01*
G75*
G02*
X173775000Y-147816000I0J250000D01*
G01*
X173775000Y-146316000D01*
G75*
G02*
X174025000Y-146066000I250000J0D01*
G01*
X175225000Y-146066000D01*
G75*
G02*
X175475000Y-146316000I0J-250000D01*
G01*
G37*
%TD.AperFunction*%
%TD*%
D13*
%TO.N,GND*%
X177038000Y-158877000D03*
%TD*%
D14*
%TO.N,GND*%
X178026458Y-140945120D02*
X177858582Y-141350408D01*
X177773000Y-141780660D01*
X177773000Y-142219340D01*
X177858582Y-142649592D01*
X178026458Y-143054880D01*
X178270176Y-143419630D01*
X178580370Y-143729824D01*
X178945120Y-143973542D01*
X179350408Y-144141418D01*
X179780660Y-144227000D01*
X180219340Y-144227000D01*
X180649592Y-144141418D01*
X181054880Y-143973542D01*
X181340000Y-143783031D01*
X181340001Y-160216970D01*
X181054880Y-160026458D01*
X180649592Y-159858582D01*
X180219340Y-159773000D01*
X179780660Y-159773000D01*
X179350408Y-159858582D01*
X178945120Y-160026458D01*
X178580370Y-160270176D01*
X178270176Y-160580370D01*
X178026458Y-160945120D01*
X177858582Y-161350408D01*
X177773000Y-161780660D01*
X177773000Y-162219340D01*
X177858582Y-162649592D01*
X178026458Y-163054880D01*
X178216969Y-163340000D01*
X161783031Y-163340000D01*
X161973542Y-163054880D01*
X162141418Y-162649592D01*
X162227000Y-162219340D01*
X162227000Y-161780660D01*
X162141418Y-161350408D01*
X161973542Y-160945120D01*
X161729824Y-160580370D01*
X161419630Y-160270176D01*
X161054880Y-160026458D01*
X160649592Y-159858582D01*
X160219340Y-159773000D01*
X159780660Y-159773000D01*
X159350408Y-159858582D01*
X158945120Y-160026458D01*
X158660000Y-160216969D01*
X158660000Y-156696107D01*
X158819368Y-156855475D01*
X159062589Y-157017990D01*
X159332842Y-157129932D01*
X159619740Y-157187000D01*
X159912260Y-157187000D01*
X160199158Y-157129932D01*
X160469411Y-157017990D01*
X160712632Y-156855475D01*
X160919475Y-156648632D01*
X161081990Y-156405411D01*
X161193932Y-156135158D01*
X161251000Y-155848260D01*
X161251000Y-155555740D01*
X161193932Y-155268842D01*
X161081990Y-154998589D01*
X160919475Y-154755368D01*
X160712632Y-154548525D01*
X160538240Y-154432000D01*
X160712632Y-154315475D01*
X160919475Y-154108632D01*
X161081990Y-153865411D01*
X161193932Y-153595158D01*
X161251000Y-153308260D01*
X161251000Y-153015740D01*
X161837000Y-153015740D01*
X161837000Y-153308260D01*
X161894068Y-153595158D01*
X162006010Y-153865411D01*
X162168525Y-154108632D01*
X162375368Y-154315475D01*
X162549760Y-154432000D01*
X162375368Y-154548525D01*
X162168525Y-154755368D01*
X162006010Y-154998589D01*
X161894068Y-155268842D01*
X161837000Y-155555740D01*
X161837000Y-155848260D01*
X161894068Y-156135158D01*
X162006010Y-156405411D01*
X162168525Y-156648632D01*
X162375368Y-156855475D01*
X162618589Y-157017990D01*
X162888842Y-157129932D01*
X163175740Y-157187000D01*
X163468260Y-157187000D01*
X163755158Y-157129932D01*
X164025411Y-157017990D01*
X164268632Y-156855475D01*
X164475475Y-156648632D01*
X164637990Y-156405411D01*
X164749932Y-156135158D01*
X164807000Y-155848260D01*
X164807000Y-155555740D01*
X164749932Y-155268842D01*
X164637990Y-154998589D01*
X164475475Y-154755368D01*
X164268632Y-154548525D01*
X164094240Y-154432000D01*
X164268632Y-154315475D01*
X164475475Y-154108632D01*
X164637990Y-153865411D01*
X164749932Y-153595158D01*
X164807000Y-153308260D01*
X164807000Y-153015740D01*
X165393000Y-153015740D01*
X165393000Y-153308260D01*
X165450068Y-153595158D01*
X165562010Y-153865411D01*
X165724525Y-154108632D01*
X165931368Y-154315475D01*
X166105760Y-154432000D01*
X165931368Y-154548525D01*
X165724525Y-154755368D01*
X165562010Y-154998589D01*
X165450068Y-155268842D01*
X165393000Y-155555740D01*
X165393000Y-155848260D01*
X165450068Y-156135158D01*
X165562010Y-156405411D01*
X165724525Y-156648632D01*
X165931368Y-156855475D01*
X166174589Y-157017990D01*
X166444842Y-157129932D01*
X166731740Y-157187000D01*
X167024260Y-157187000D01*
X167311158Y-157129932D01*
X167581411Y-157017990D01*
X167824632Y-156855475D01*
X168031475Y-156648632D01*
X168193990Y-156405411D01*
X168305932Y-156135158D01*
X168363000Y-155848260D01*
X168363000Y-155555740D01*
X171997000Y-155555740D01*
X171997000Y-155848260D01*
X172054068Y-156135158D01*
X172166010Y-156405411D01*
X172328525Y-156648632D01*
X172535368Y-156855475D01*
X172778589Y-157017990D01*
X173048842Y-157129932D01*
X173335740Y-157187000D01*
X173628260Y-157187000D01*
X173915158Y-157129932D01*
X174185411Y-157017990D01*
X174428632Y-156855475D01*
X174635475Y-156648632D01*
X174752000Y-156474240D01*
X174868525Y-156648632D01*
X175075368Y-156855475D01*
X175318589Y-157017990D01*
X175588842Y-157129932D01*
X175875740Y-157187000D01*
X176168260Y-157187000D01*
X176455158Y-157129932D01*
X176725411Y-157017990D01*
X176968632Y-156855475D01*
X177175475Y-156648632D01*
X177337990Y-156405411D01*
X177449932Y-156135158D01*
X177507000Y-155848260D01*
X177507000Y-155555740D01*
X177449932Y-155268842D01*
X177337990Y-154998589D01*
X177175475Y-154755368D01*
X176968632Y-154548525D01*
X176725411Y-154386010D01*
X176455158Y-154274068D01*
X176168260Y-154217000D01*
X175875740Y-154217000D01*
X175588842Y-154274068D01*
X175318589Y-154386010D01*
X175075368Y-154548525D01*
X174868525Y-154755368D01*
X174752000Y-154929760D01*
X174635475Y-154755368D01*
X174428632Y-154548525D01*
X174185411Y-154386010D01*
X173915158Y-154274068D01*
X173628260Y-154217000D01*
X173335740Y-154217000D01*
X173048842Y-154274068D01*
X172778589Y-154386010D01*
X172535368Y-154548525D01*
X172328525Y-154755368D01*
X172166010Y-154998589D01*
X172054068Y-155268842D01*
X171997000Y-155555740D01*
X168363000Y-155555740D01*
X168305932Y-155268842D01*
X168193990Y-154998589D01*
X168031475Y-154755368D01*
X167824632Y-154548525D01*
X167650240Y-154432000D01*
X167824632Y-154315475D01*
X168031475Y-154108632D01*
X168193990Y-153865411D01*
X168305932Y-153595158D01*
X168363000Y-153308260D01*
X168363000Y-153015740D01*
X168305932Y-152728842D01*
X168193990Y-152458589D01*
X168031475Y-152215368D01*
X167824632Y-152008525D01*
X167811485Y-151999740D01*
X171997000Y-151999740D01*
X171997000Y-152292260D01*
X172054068Y-152579158D01*
X172166010Y-152849411D01*
X172328525Y-153092632D01*
X172535368Y-153299475D01*
X172778589Y-153461990D01*
X173048842Y-153573932D01*
X173335740Y-153631000D01*
X173628260Y-153631000D01*
X173915158Y-153573932D01*
X174185411Y-153461990D01*
X174428632Y-153299475D01*
X174635475Y-153092632D01*
X174752000Y-152918240D01*
X174868525Y-153092632D01*
X175075368Y-153299475D01*
X175318589Y-153461990D01*
X175588842Y-153573932D01*
X175875740Y-153631000D01*
X176168260Y-153631000D01*
X176455158Y-153573932D01*
X176725411Y-153461990D01*
X176968632Y-153299475D01*
X177175475Y-153092632D01*
X177337990Y-152849411D01*
X177449932Y-152579158D01*
X177507000Y-152292260D01*
X177507000Y-151999740D01*
X177449932Y-151712842D01*
X177337990Y-151442589D01*
X177175475Y-151199368D01*
X176968632Y-150992525D01*
X176725411Y-150830010D01*
X176455158Y-150718068D01*
X176168260Y-150661000D01*
X175875740Y-150661000D01*
X175588842Y-150718068D01*
X175318589Y-150830010D01*
X175075368Y-150992525D01*
X174868525Y-151199368D01*
X174752000Y-151373760D01*
X174635475Y-151199368D01*
X174428632Y-150992525D01*
X174185411Y-150830010D01*
X173915158Y-150718068D01*
X173628260Y-150661000D01*
X173335740Y-150661000D01*
X173048842Y-150718068D01*
X172778589Y-150830010D01*
X172535368Y-150992525D01*
X172328525Y-151199368D01*
X172166010Y-151442589D01*
X172054068Y-151712842D01*
X171997000Y-151999740D01*
X167811485Y-151999740D01*
X167581411Y-151846010D01*
X167311158Y-151734068D01*
X167024260Y-151677000D01*
X166731740Y-151677000D01*
X166444842Y-151734068D01*
X166174589Y-151846010D01*
X165931368Y-152008525D01*
X165724525Y-152215368D01*
X165562010Y-152458589D01*
X165450068Y-152728842D01*
X165393000Y-153015740D01*
X164807000Y-153015740D01*
X164749932Y-152728842D01*
X164637990Y-152458589D01*
X164475475Y-152215368D01*
X164268632Y-152008525D01*
X164025411Y-151846010D01*
X163755158Y-151734068D01*
X163468260Y-151677000D01*
X163175740Y-151677000D01*
X162888842Y-151734068D01*
X162618589Y-151846010D01*
X162375368Y-152008525D01*
X162168525Y-152215368D01*
X162006010Y-152458589D01*
X161894068Y-152728842D01*
X161837000Y-153015740D01*
X161251000Y-153015740D01*
X161193932Y-152728842D01*
X161081990Y-152458589D01*
X160919475Y-152215368D01*
X160712632Y-152008525D01*
X160469411Y-151846010D01*
X160199158Y-151734068D01*
X159912260Y-151677000D01*
X159619740Y-151677000D01*
X159332842Y-151734068D01*
X159062589Y-151846010D01*
X158819368Y-152008525D01*
X158660000Y-152167893D01*
X158660000Y-146843050D01*
X170640000Y-146843050D01*
X170640000Y-147288949D01*
X170661487Y-147507110D01*
X170746401Y-147787033D01*
X170884294Y-148045013D01*
X171069866Y-148271134D01*
X171295986Y-148456706D01*
X171553966Y-148594599D01*
X171833889Y-148679513D01*
X172125000Y-148708185D01*
X172416110Y-148679513D01*
X172696033Y-148594599D01*
X172954013Y-148456706D01*
X173180134Y-148271134D01*
X173365706Y-148045014D01*
X173503599Y-147787034D01*
X173588513Y-147507111D01*
X173610000Y-147288950D01*
X173610000Y-146843051D01*
X173588513Y-146624890D01*
X173503599Y-146344967D01*
X173365706Y-146086986D01*
X173180134Y-145860866D01*
X172954014Y-145675294D01*
X172696034Y-145537401D01*
X172416111Y-145452487D01*
X172125000Y-145423815D01*
X171833890Y-145452487D01*
X171553967Y-145537401D01*
X171295987Y-145675294D01*
X171069866Y-145860866D01*
X170884294Y-146086986D01*
X170746401Y-146344966D01*
X170661487Y-146624889D01*
X170640000Y-146843050D01*
X158660000Y-146843050D01*
X158660000Y-143783031D01*
X158945120Y-143973542D01*
X159350408Y-144141418D01*
X159780660Y-144227000D01*
X160219340Y-144227000D01*
X160649592Y-144141418D01*
X161054880Y-143973542D01*
X161419630Y-143729824D01*
X161729824Y-143419630D01*
X161973542Y-143054880D01*
X162141418Y-142649592D01*
X162227000Y-142219340D01*
X162227000Y-141780660D01*
X162141418Y-141350408D01*
X161973542Y-140945120D01*
X161783031Y-140660000D01*
X178216969Y-140660000D01*
X178026458Y-140945120D01*
%TA.AperFunction,Conductor*%
D15*
G36*
X178026458Y-140945120D02*
G01*
X177858582Y-141350408D01*
X177773000Y-141780660D01*
X177773000Y-142219340D01*
X177858582Y-142649592D01*
X178026458Y-143054880D01*
X178270176Y-143419630D01*
X178580370Y-143729824D01*
X178945120Y-143973542D01*
X179350408Y-144141418D01*
X179780660Y-144227000D01*
X180219340Y-144227000D01*
X180649592Y-144141418D01*
X181054880Y-143973542D01*
X181340000Y-143783031D01*
X181340001Y-160216970D01*
X181054880Y-160026458D01*
X180649592Y-159858582D01*
X180219340Y-159773000D01*
X179780660Y-159773000D01*
X179350408Y-159858582D01*
X178945120Y-160026458D01*
X178580370Y-160270176D01*
X178270176Y-160580370D01*
X178026458Y-160945120D01*
X177858582Y-161350408D01*
X177773000Y-161780660D01*
X177773000Y-162219340D01*
X177858582Y-162649592D01*
X178026458Y-163054880D01*
X178216969Y-163340000D01*
X161783031Y-163340000D01*
X161973542Y-163054880D01*
X162141418Y-162649592D01*
X162227000Y-162219340D01*
X162227000Y-161780660D01*
X162141418Y-161350408D01*
X161973542Y-160945120D01*
X161729824Y-160580370D01*
X161419630Y-160270176D01*
X161054880Y-160026458D01*
X160649592Y-159858582D01*
X160219340Y-159773000D01*
X159780660Y-159773000D01*
X159350408Y-159858582D01*
X158945120Y-160026458D01*
X158660000Y-160216969D01*
X158660000Y-156696107D01*
X158819368Y-156855475D01*
X159062589Y-157017990D01*
X159332842Y-157129932D01*
X159619740Y-157187000D01*
X159912260Y-157187000D01*
X160199158Y-157129932D01*
X160469411Y-157017990D01*
X160712632Y-156855475D01*
X160919475Y-156648632D01*
X161081990Y-156405411D01*
X161193932Y-156135158D01*
X161251000Y-155848260D01*
X161251000Y-155555740D01*
X161193932Y-155268842D01*
X161081990Y-154998589D01*
X160919475Y-154755368D01*
X160712632Y-154548525D01*
X160538240Y-154432000D01*
X160712632Y-154315475D01*
X160919475Y-154108632D01*
X161081990Y-153865411D01*
X161193932Y-153595158D01*
X161251000Y-153308260D01*
X161251000Y-153015740D01*
X161837000Y-153015740D01*
X161837000Y-153308260D01*
X161894068Y-153595158D01*
X162006010Y-153865411D01*
X162168525Y-154108632D01*
X162375368Y-154315475D01*
X162549760Y-154432000D01*
X162375368Y-154548525D01*
X162168525Y-154755368D01*
X162006010Y-154998589D01*
X161894068Y-155268842D01*
X161837000Y-155555740D01*
X161837000Y-155848260D01*
X161894068Y-156135158D01*
X162006010Y-156405411D01*
X162168525Y-156648632D01*
X162375368Y-156855475D01*
X162618589Y-157017990D01*
X162888842Y-157129932D01*
X163175740Y-157187000D01*
X163468260Y-157187000D01*
X163755158Y-157129932D01*
X164025411Y-157017990D01*
X164268632Y-156855475D01*
X164475475Y-156648632D01*
X164637990Y-156405411D01*
X164749932Y-156135158D01*
X164807000Y-155848260D01*
X164807000Y-155555740D01*
X164749932Y-155268842D01*
X164637990Y-154998589D01*
X164475475Y-154755368D01*
X164268632Y-154548525D01*
X164094240Y-154432000D01*
X164268632Y-154315475D01*
X164475475Y-154108632D01*
X164637990Y-153865411D01*
X164749932Y-153595158D01*
X164807000Y-153308260D01*
X164807000Y-153015740D01*
X165393000Y-153015740D01*
X165393000Y-153308260D01*
X165450068Y-153595158D01*
X165562010Y-153865411D01*
X165724525Y-154108632D01*
X165931368Y-154315475D01*
X166105760Y-154432000D01*
X165931368Y-154548525D01*
X165724525Y-154755368D01*
X165562010Y-154998589D01*
X165450068Y-155268842D01*
X165393000Y-155555740D01*
X165393000Y-155848260D01*
X165450068Y-156135158D01*
X165562010Y-156405411D01*
X165724525Y-156648632D01*
X165931368Y-156855475D01*
X166174589Y-157017990D01*
X166444842Y-157129932D01*
X166731740Y-157187000D01*
X167024260Y-157187000D01*
X167311158Y-157129932D01*
X167581411Y-157017990D01*
X167824632Y-156855475D01*
X168031475Y-156648632D01*
X168193990Y-156405411D01*
X168305932Y-156135158D01*
X168363000Y-155848260D01*
X168363000Y-155555740D01*
X171997000Y-155555740D01*
X171997000Y-155848260D01*
X172054068Y-156135158D01*
X172166010Y-156405411D01*
X172328525Y-156648632D01*
X172535368Y-156855475D01*
X172778589Y-157017990D01*
X173048842Y-157129932D01*
X173335740Y-157187000D01*
X173628260Y-157187000D01*
X173915158Y-157129932D01*
X174185411Y-157017990D01*
X174428632Y-156855475D01*
X174635475Y-156648632D01*
X174752000Y-156474240D01*
X174868525Y-156648632D01*
X175075368Y-156855475D01*
X175318589Y-157017990D01*
X175588842Y-157129932D01*
X175875740Y-157187000D01*
X176168260Y-157187000D01*
X176455158Y-157129932D01*
X176725411Y-157017990D01*
X176968632Y-156855475D01*
X177175475Y-156648632D01*
X177337990Y-156405411D01*
X177449932Y-156135158D01*
X177507000Y-155848260D01*
X177507000Y-155555740D01*
X177449932Y-155268842D01*
X177337990Y-154998589D01*
X177175475Y-154755368D01*
X176968632Y-154548525D01*
X176725411Y-154386010D01*
X176455158Y-154274068D01*
X176168260Y-154217000D01*
X175875740Y-154217000D01*
X175588842Y-154274068D01*
X175318589Y-154386010D01*
X175075368Y-154548525D01*
X174868525Y-154755368D01*
X174752000Y-154929760D01*
X174635475Y-154755368D01*
X174428632Y-154548525D01*
X174185411Y-154386010D01*
X173915158Y-154274068D01*
X173628260Y-154217000D01*
X173335740Y-154217000D01*
X173048842Y-154274068D01*
X172778589Y-154386010D01*
X172535368Y-154548525D01*
X172328525Y-154755368D01*
X172166010Y-154998589D01*
X172054068Y-155268842D01*
X171997000Y-155555740D01*
X168363000Y-155555740D01*
X168305932Y-155268842D01*
X168193990Y-154998589D01*
X168031475Y-154755368D01*
X167824632Y-154548525D01*
X167650240Y-154432000D01*
X167824632Y-154315475D01*
X168031475Y-154108632D01*
X168193990Y-153865411D01*
X168305932Y-153595158D01*
X168363000Y-153308260D01*
X168363000Y-153015740D01*
X168305932Y-152728842D01*
X168193990Y-152458589D01*
X168031475Y-152215368D01*
X167824632Y-152008525D01*
X167811485Y-151999740D01*
X171997000Y-151999740D01*
X171997000Y-152292260D01*
X172054068Y-152579158D01*
X172166010Y-152849411D01*
X172328525Y-153092632D01*
X172535368Y-153299475D01*
X172778589Y-153461990D01*
X173048842Y-153573932D01*
X173335740Y-153631000D01*
X173628260Y-153631000D01*
X173915158Y-153573932D01*
X174185411Y-153461990D01*
X174428632Y-153299475D01*
X174635475Y-153092632D01*
X174752000Y-152918240D01*
X174868525Y-153092632D01*
X175075368Y-153299475D01*
X175318589Y-153461990D01*
X175588842Y-153573932D01*
X175875740Y-153631000D01*
X176168260Y-153631000D01*
X176455158Y-153573932D01*
X176725411Y-153461990D01*
X176968632Y-153299475D01*
X177175475Y-153092632D01*
X177337990Y-152849411D01*
X177449932Y-152579158D01*
X177507000Y-152292260D01*
X177507000Y-151999740D01*
X177449932Y-151712842D01*
X177337990Y-151442589D01*
X177175475Y-151199368D01*
X176968632Y-150992525D01*
X176725411Y-150830010D01*
X176455158Y-150718068D01*
X176168260Y-150661000D01*
X175875740Y-150661000D01*
X175588842Y-150718068D01*
X175318589Y-150830010D01*
X175075368Y-150992525D01*
X174868525Y-151199368D01*
X174752000Y-151373760D01*
X174635475Y-151199368D01*
X174428632Y-150992525D01*
X174185411Y-150830010D01*
X173915158Y-150718068D01*
X173628260Y-150661000D01*
X173335740Y-150661000D01*
X173048842Y-150718068D01*
X172778589Y-150830010D01*
X172535368Y-150992525D01*
X172328525Y-151199368D01*
X172166010Y-151442589D01*
X172054068Y-151712842D01*
X171997000Y-151999740D01*
X167811485Y-151999740D01*
X167581411Y-151846010D01*
X167311158Y-151734068D01*
X167024260Y-151677000D01*
X166731740Y-151677000D01*
X166444842Y-151734068D01*
X166174589Y-151846010D01*
X165931368Y-152008525D01*
X165724525Y-152215368D01*
X165562010Y-152458589D01*
X165450068Y-152728842D01*
X165393000Y-153015740D01*
X164807000Y-153015740D01*
X164749932Y-152728842D01*
X164637990Y-152458589D01*
X164475475Y-152215368D01*
X164268632Y-152008525D01*
X164025411Y-151846010D01*
X163755158Y-151734068D01*
X163468260Y-151677000D01*
X163175740Y-151677000D01*
X162888842Y-151734068D01*
X162618589Y-151846010D01*
X162375368Y-152008525D01*
X162168525Y-152215368D01*
X162006010Y-152458589D01*
X161894068Y-152728842D01*
X161837000Y-153015740D01*
X161251000Y-153015740D01*
X161193932Y-152728842D01*
X161081990Y-152458589D01*
X160919475Y-152215368D01*
X160712632Y-152008525D01*
X160469411Y-151846010D01*
X160199158Y-151734068D01*
X159912260Y-151677000D01*
X159619740Y-151677000D01*
X159332842Y-151734068D01*
X159062589Y-151846010D01*
X158819368Y-152008525D01*
X158660000Y-152167893D01*
X158660000Y-146843050D01*
X170640000Y-146843050D01*
X170640000Y-147288949D01*
X170661487Y-147507110D01*
X170746401Y-147787033D01*
X170884294Y-148045013D01*
X171069866Y-148271134D01*
X171295986Y-148456706D01*
X171553966Y-148594599D01*
X171833889Y-148679513D01*
X172125000Y-148708185D01*
X172416110Y-148679513D01*
X172696033Y-148594599D01*
X172954013Y-148456706D01*
X173180134Y-148271134D01*
X173365706Y-148045014D01*
X173503599Y-147787034D01*
X173588513Y-147507111D01*
X173610000Y-147288950D01*
X173610000Y-146843051D01*
X173588513Y-146624890D01*
X173503599Y-146344967D01*
X173365706Y-146086986D01*
X173180134Y-145860866D01*
X172954014Y-145675294D01*
X172696034Y-145537401D01*
X172416111Y-145452487D01*
X172125000Y-145423815D01*
X171833890Y-145452487D01*
X171553967Y-145537401D01*
X171295987Y-145675294D01*
X171069866Y-145860866D01*
X170884294Y-146086986D01*
X170746401Y-146344966D01*
X170661487Y-146624889D01*
X170640000Y-146843050D01*
X158660000Y-146843050D01*
X158660000Y-143783031D01*
X158945120Y-143973542D01*
X159350408Y-144141418D01*
X159780660Y-144227000D01*
X160219340Y-144227000D01*
X160649592Y-144141418D01*
X161054880Y-143973542D01*
X161419630Y-143729824D01*
X161729824Y-143419630D01*
X161973542Y-143054880D01*
X162141418Y-142649592D01*
X162227000Y-142219340D01*
X162227000Y-141780660D01*
X162141418Y-141350408D01*
X161973542Y-140945120D01*
X161783031Y-140660000D01*
X178216969Y-140660000D01*
X178026458Y-140945120D01*
G37*
%TD.AperFunction*%
%TD*%
M02*
